<?xml version="1.0" encoding="UTF-8" standalone="no"?>
<svg
   width="286"
   height="286"
   viewBox="0 0 286 286"
   version="1.1"
   id="svg1"
   sodipodi:docname="trace.svg"
   inkscape:version="1.3.2 (091e20e, 2023-11-25, custom)"
   xmlns:inkscape="http://www.inkscape.org/namespaces/inkscape"
   xmlns:sodipodi="http://sodipodi.sourceforge.net/DTD/sodipodi-0.dtd"
   xmlns="http://www.w3.org/2000/svg"
   xmlns:svg="http://www.w3.org/2000/svg">
  <defs
     id="defs1">
    <inkscape:path-effect
       effect="spiro"
       id="path-effect66"
       is_visible="true"
       lpeversion="1" />
    <inkscape:path-effect
       effect="spiro"
       id="path-effect65"
       is_visible="true"
       lpeversion="1" />
    <inkscape:path-effect
       effect="bspline"
       id="path-effect64"
       is_visible="true"
       lpeversion="1.3"
       weight="33.333333"
       steps="2"
       helper_size="0"
       apply_no_weight="true"
       apply_with_weight="true"
       only_selected="false"
       uniform="false" />
    <inkscape:path-effect
       effect="bspline"
       id="path-effect62"
       is_visible="true"
       lpeversion="1.3"
       weight="33.333333"
       steps="2"
       helper_size="0"
       apply_no_weight="true"
       apply_with_weight="true"
       only_selected="false"
       uniform="false" />
  </defs>
  <sodipodi:namedview
     id="namedview1"
     pagecolor="#ffffff"
     bordercolor="#000000"
     borderopacity="0.25"
     inkscape:showpageshadow="2"
     inkscape:pageopacity="0.0"
     inkscape:pagecheckerboard="0"
     inkscape:deskcolor="#d1d1d1"
     inkscape:zoom="2.0100623"
     inkscape:cx="187.30763"
     inkscape:cy="141.5379"
     inkscape:window-width="1920"
     inkscape:window-height="1009"
     inkscape:window-x="-8"
     inkscape:window-y="-8"
     inkscape:window-maximized="1"
     inkscape:current-layer="svg1" />
  <path
     d="m 219.5,7 c -1.1,0.473 -3.812,0.891 -6.027,0.93 -2.216,0.038 -4.916,0.66 -6,1.38 -1.085,0.721 -3.87,1.913 -6.188,2.649 -2.319,0.736 -5.21,2.396 -6.425,3.69 -1.215,1.293 -2.621,2.351 -3.125,2.351 -0.505,0 -2.705,1.531 -4.891,3.401 -4.766,4.08 -6.096,4.313 -31.556,5.526 -10.567,0.504 -21.592,1.4 -24.5,1.993 -3.793,0.773 -6.843,0.77 -10.788,-0.011 -43.588,-8.629 -65.508,8.694 -67.663,53.47 -0.396,8.234 -0.88,10.522 -2.906,13.731 -1.337,2.117 -2.278896,4.14559 -2.431,4.418 -1.243743,2.2275 -14.404632,20.49714 -21.305632,28.27114 -1.422,1.601 -3.183374,3.88038 -4.384245,7.37312 C 19.983877,138.67001 19.132,141.96064 18.215,146 c -0.690006,5.64937 -2.765,11.684 -3.835,28.935 -0.548,8.834 0.085,13.69 2.552,19.565 0.462,1.1 1.419,4.025 2.126,6.5 1.92,6.722 13.577,29.817 17.241,34.161 5.779,6.851 8.385,10.302 9.696,12.839 1.52,2.942 9.977,11 11.546,11 0.597,0 2.407,1.381 4.022,3.069 3.367,3.519 7.412,5.559 12.437,6.272 1.925,0.273 6.2,1.293 9.5,2.266 5.061,1.493 10.513,1.795 34.85,1.934 18.738,0.107 29.078,0.529 29.5,1.206 3.08332,0.13327 6.19508,-0.37397 11.14508,-0.061 4.95,0.312 14.09305,0.15543 16.44805,0.51043 2.728,0.411 4.57054,0.33089 7.67589,0.26341 8.89362,-0.0394 3.26133,-0.0239 6.88098,-0.12287 24.316,-0.516 46.51311,-9.62865 67.67411,-29.78165 4.043,-3.85 8.24895,-10.08035 9.82389,-12.55535 1.49198,-2.34464 3.22244,-4.46897 4.765,-9.32889 1.52382,-5.92418 3.73469,-65.83212 1.833,-71.47711 -2.24125,-5.51368 -3.34063,-9.66675 -4.096,-11.669 -0.61562,-1.63181 -0.70981,-1.64462 -1.33373,-3.57562 -0.17781,-0.55033 -0.70127,-1.62738 -1.00327,-3.69338 -1.554,-10.657 -2.63,-15.623 -3.595,-16.588 -1.651,-1.651 -1.276,-4.872 1.131,-9.73 7.218,-14.566 5.147,-60.541 -3.493,-77.545 C 253.422,12.089 232.424,1.446 219.5,7 M 217,28 c -0.825,0.533 -2.275,0.976 -3.223,0.985 -2.376,0.021 -11.655,4.587 -15.196,7.478 -3.143,2.565 0.546,14.974 7.348,24.72 21.632,30.993 37.503,43.83 41.44,33.52 3.422,-8.959 1.746,-44.524 -2.494,-52.939 C 244.394,40.809 244,39.184 244,38.154 244,30.194 224.787,22.968 217,28 M 91.699,48.008 c -5.425,0.691 -6.932,1.495 -12.154,6.492 -1.855,1.775 -3.386,5.89 -3.908,10.5 -0.28,2.475 -0.816,5.513 -1.19,6.75 C 74.025,73.146 74.19,74 74.883,74 75.498,74 76,73.393 76,72.652 76,70.201 97.17,51.904 101.072,50.983 103.986,50.295 104.827,48 102.165,48 101.064,48 99.564,47.836 98.832,47.635 98.099,47.434 94.89,47.602 91.699,48.008 M 161,53.259 c -2.65089,0.236135 -7.02099,0.918529 -10,1.59 -3.025,0.681838 -7.23316,1.835946 -9.938,2.956 -2.74881,1.119054 -4.93111,1.931162 -5.925,2.195 -2.06933,0.549322 -15.707,4.691 -22.051,7.625 -8.144,3.767 -13.661,7.833 -23.586,17.383 -4.95,4.764 -10.575,9.709 -12.5,10.99 -8.747,5.821 -8.902,6.425 -1.841,7.178 10.888,1.162 12.731,1.87 18.443,7.091 15.686,14.337 7.164,33.633 -21.081,47.733 -10.853,5.418 -12.964,6.833 -12.681,8.5 0.186,1.1 0.636,4.25 1,7 0.805,6.097 8.959,6.645 22.66,1.525 1.1,-0.412 3.8,-1.311 6,-2 2.2,-0.688 5.601,-2.783 7.559,-4.654 9.935,-9.501 27.794,-15.42 36.079,-11.958 21.158,8.841 10.645,32.758 -21.638,49.225 -4.4,2.244 -9.575,5.042 -11.5,6.218 -1.925,1.175 -4.201,2.138 -5.059,2.14 -7.18,0.017 -3.62,7.367 7.059,14.573 1.925,1.298 6.329,4.402 9.788,6.896 3.458,2.494 6.494,4.535 6.747,4.535 0.925,0 11.063,7.435 14.465,10.609 3.337,3.112 3.967,3.293 13.5,3.881 19.262,1.187 42.791,1.034 48,-0.313 2.75,-0.711 6.8,-1.663 9,-2.115 27.264,-5.607 48.364,-23.929 50.743,-44.062 1.642,-13.887 0.193,-51.518 -2.232,-58 -0.721,-1.925 -1.1725,-4.27563 -1.6125,-5.43781 -1.48432,-6.72487 -3.71444,-11.30051 -4.3985,-14.11319 -1.63602,-6.72691 -2.202,-10.326 -7.827,-12.096 -10.643,-3.347 -25.276,-15.553 -36.198,-30.192 -3.011,-4.037 -5.936,-7.862 -6.5,-8.5 C 191.174,74.79 184.689,65.192 182.574,60.569 180.35,55.706 179.58151,55.639775 177.172,55 175.41544,54.533597 174.32399,54.452094 170.28212,53.714 166.88181,53.097749 164.18147,53.073123 161,53.259 M 143.216,77.4 c -6.407,2.698 -13.57,8.849 -15.839,13.6 -0.919,1.925 -2.055,4.281 -2.524,5.236 -5.275,10.74 2.164,19.268 17.647,20.229 6.05,0.376 12.476,1.139 14.28,1.696 2.269,0.702 4.241,0.679 6.399,-0.074 1.716,-0.598 4.38,-1.087 5.92,-1.087 7.722,0 15.837,-15.332 11.214,-21.187 -0.571,-0.722 -1.311,-2.463 -1.646,-3.869 C 177.251,85.991 164.882,77 158.109,77 c -2.195,0 -4.269,-0.45 -4.609,-1 -0.946,-1.531 -4.462,-1.052 -10.284,1.4 M 149,92.495 c -12.811,4.596 -7.431,9.436 11,9.893 7.15,0.178 5.211,-6.602 -2.852,-9.971 -3.837,-1.603 -3.455,-1.606 -8.148,0.078 M 61.5,126.523 C 58.846,128.691 56.436,142 58.698,142 c 0.21,0 2.146,-0.9 4.302,-2 2.156,-1.1 4.780749,-1.22266 5.528749,-1.22266 3.431,0 13.572251,-12.34334 11.764251,-14.15034 -1.91,-1.911 -15.855,-0.504 -18.793,1.896 m -25.25,36.616 c -1.465,1.478 -1.769,20.863 -0.371,23.625 0.484,0.955 1.641,4.211 2.571,7.236 2.525,8.212 12.986,28.801 17.528,34.5 2.192,2.75 4.4,5.9 4.907,7 2.286,4.962 10.097,10.352 18.115,12.501 2.475,0.663 6.315,1.834 8.533,2.602 12.502,4.329 13.212,0.104 1.341,-7.971 -2.545,-1.731 -6.274,-5.168 -8.288,-7.639 -2.013,-2.471 -4.881,-5.848 -6.373,-7.505 -1.492,-1.656 -4.043,-4.806 -5.668,-7 -1.625,-2.193 -3.875,-4.649 -5,-5.456 -1.125,-0.807 -3.62,-3.247 -5.545,-5.423 -1.925,-2.175 -5.168,-5.564 -7.207,-7.532 -3.706,-3.576 -7.48707,-13.50019 -8.793,-17.046 -0.363578,-0.98718 -0.543281,-1.56913 -1,-2.531 -0.277347,-0.58411 -1.035,-3.404 -1.077,-6.809 -0.1,-8.082 -1.924,-14.316 -3.673,-12.552 m 150.946,2.159 c -4.355,4.493 -4.249,7.973 0.375,12.334 5.57,5.253 10.246,3.942 13.808,-3.87 4.01,-8.797 -7.311,-15.554 -14.183,-8.464 m 3.181,19.365 c -4.65,2.352 -6.783,7.431 -4.955,11.804 2.656,6.358 11.701,8.37 16.045,3.569 1.839,-2.032 1.368,-14.67 -0.504,-13.513 -0.462,0.285 -1.205,-0.13 -1.652,-0.922 -1.258,-2.236 -5.489,-2.68 -8.934,-0.938"
     stroke="none"
     fill="#000000"
     fill-rule="evenodd"
     id="path1"
     style="display:inline"
     sodipodi:nodetypes="cccccsccccccsccccccccscccsccccccsccsscscccccccccscccccsscscccscscccccccccccccccccscccccccsccccsccccccccsccscccccccssscccccccccccccsccsscccccccccccc" />
  <path
     id="path9"
     style="fill:#000000;fill-rule:evenodd;stroke-width:1.30037"
     d="m 17.236328,183.2793 c 0,0 13.075333,97.79043 89.179692,90.04687 45.65288,-4.64521 36.33904,-3.99366 2.48242,-21.9707 -0.15994,0.68316 -0.36237,1.35398 -0.69922,1.97461 -0.38925,0.70136 -0.86812,1.35389 -1.5293,1.82422 -0.12993,0.086 -0.25248,0.18211 -0.38867,0.25781 -0.65136,0.36208 -1.40899,0.45948 -2.14258,0.42578 -1.08498,-0.0713 -2.17357,-0.16362 -3.23633,-0.4043 -1.543902,-0.399 -3.041719,-0.94925 -4.564449,-1.41992 -2.353849,-0.76208 -4.691226,-1.57745 -6.992188,-2.48828 -1.102637,-0.45448 -2.193952,-0.93302 -3.28125,-1.42187 -0.14945,0.44573 -0.75196,0.70707 -1.585937,0.30078 -0.0071,-0.003 -0.01442,-0.006 -0.02148,-0.01 -0.205746,0.0151 -0.445576,-0.0141 -0.714843,-0.10156 -0.361445,-0.1174 -0.724492,-0.23416 -1.085938,-0.35156 -1.394474,-0.45766 -2.793634,-0.91162 -4.160156,-1.44922 -0.277952,0.10039 -0.643382,0.1048 -1.101563,-0.11328 -1.805962,-0.85959 -3.620798,-1.70406 -5.382812,-2.65235 -2.883127,-1.58425 -5.800587,-3.20692 -8.173828,-5.52148 -0.240508,-0.26578 -0.489045,-0.5253 -0.720703,-0.79883 -0.140872,-0.16633 -0.275236,-0.33817 -0.40625,-0.51172 -0.828126,-0.51464 -1.631111,-1.06634 -2.355469,-1.73047 -0.666448,-0.61104 -0.636366,-1.19774 -0.267578,-1.46289 -1.150715,-0.80511 -2.272998,-1.64927 -3.332032,-2.57617 -1.963469,-1.74104 -3.859034,-3.56697 -5.582031,-5.54883 -1.844885,-2.17353 -3.651192,-4.38779 -5.144531,-6.82422 -1.557735,-2.53478 -2.983263,-5.14688 -4.451172,-7.73437 -1.36131,-2.42323 -2.651513,-4.88444 -3.949219,-7.3418 -0.293624,-0.50528 -0.496324,-0.86379 -0.804687,-1.35547 -0.386891,-0.61689 -0.824327,-1.20556 -1.138672,-1.86523 -0.405857,-0.85164 -0.156059,-1.42704 0.294922,-1.54297 C 29.82717,195.48049 23.571461,189.65048 17.236328,183.2793 Z m 41.802734,36.41015 c 0.03298,0.0737 0.06652,0.14706 0.09961,0.22071 0.01555,-0.036 0.02155,-0.0816 0.04102,-0.11328 -0.04672,-0.0356 -0.09389,-0.0717 -0.140626,-0.10743 z m 6.580079,4.83594 c 0.0047,0.008 0.009,0.0157 0.01367,0.0234 7.41e-4,-0.004 0.0012,-0.008 0.002,-0.0117 -0.0054,-0.004 -0.01018,-0.008 -0.01563,-0.0117 z m -1.060547,1.64649 c 0.01092,0.0229 0.02229,0.0455 0.0332,0.0684 0.04206,0.0884 0.08585,0.1758 0.128906,0.26368 8.68e-4,-0.0196 0.003,-0.0379 0.0039,-0.0566 -0.05579,-0.0915 -0.110311,-0.18401 -0.166015,-0.27539 z m 11.28125,8.5625 c -0.0014,0.011 -0.0024,0.0222 -0.0039,0.0332 0.0103,-9e-5 0.02084,5e-5 0.03125,0.002 0.01235,-0.009 0.0251,-0.0207 0.03711,-0.0293 -0.02122,-0.002 -0.04314,-0.005 -0.06445,-0.006 z m 5.175781,0.3164 c -0.03583,0.002 -0.07162,0 -0.107422,0.002 0.152354,0.0775 0.315854,0.16037 0.46875,0.23829 -0.117688,-0.0756 -0.243361,-0.1642 -0.361328,-0.24024 z m -3.796875,5.78516 c -0.0024,9.2e-4 -0.0054,5e-5 -0.0078,0.002 -1.1e-4,0.002 9.1e-5,0.002 0,0.004 0.07397,0.0528 0.1479,0.10568 0.220703,0.16015 0.01601,0.007 0.03087,0.0165 0.04687,0.0234 -0.08662,-0.0631 -0.173861,-0.12533 -0.259766,-0.18945 z m -8.644531,0.82617 c -0.0095,6.3e-4 -0.01575,0.005 -0.02539,0.006 0.259213,0.16906 0.529489,0.32153 0.792969,0.48437 -0.256277,-0.16284 -0.512859,-0.32502 -0.767578,-0.49023 z m 21.982422,0.69141 c 0.156595,0.1538 0.31569,0.30527 0.476562,0.45507 0.339474,0.30604 0.6833,0.60712 1.025391,0.91016 0.04639,-0.007 0.09451,-0.0115 0.144531,-0.0117 0.303741,-0.002 0.669976,0.12833 1.044922,0.44336 0.530423,0.44567 0.953544,0.98024 1.298828,1.57617 0.268545,-0.23688 0.536616,-0.47437 0.808594,-0.70703 -0.717534,-0.38324 -1.441812,-0.75355 -2.154297,-1.14648 -0.884056,-0.50162 -1.763729,-1.01166 -2.644531,-1.51953 z m -8.695313,1.05273 c 0.03104,0.0342 0.0624,0.0676 0.09375,0.10156 0.07867,0.0626 0.161859,0.12068 0.242188,0.18164 -0.0209,-0.049 -0.04343,-0.0974 -0.06445,-0.14648 -0.09045,-0.0457 -0.180933,-0.0913 -0.271484,-0.13672 z m 1.058594,0.9707 c 0.0077,0.009 0.01373,0.0201 0.02148,0.0293 -5.6e-5,-0.009 -2.4e-4,-0.0184 0,-0.0273 -0.0072,-10e-4 -0.01431,-8e-5 -0.02148,-0.002 z m 14.109375,1.53125 c -0.518495,0.43525 -1.031799,0.87724 -1.537109,1.32813 0.104722,0.20796 0.203925,0.41884 0.304687,0.6289 0.113086,-0.089 0.247387,-0.13792 0.390625,-0.14257 0.391184,-0.0127 0.844797,0.30411 1.078125,1.02929 0.08176,0.25411 0.09924,0.50726 0.0957,0.75977 0.01969,-0.002 0.03918,-0.005 0.05859,-0.006 0.228906,-0.008 0.437348,0.0979 0.576172,0.29102 0.115158,-0.17242 0.243706,-0.3358 0.353515,-0.51172 0.316934,-0.50776 0.697288,-0.72515 1.023438,-0.73243 0.622644,-0.0139 1.045273,0.74011 0.439453,1.70899 -0.496825,0.79457 -1.05111,1.54976 -1.605469,2.30469 -0.04228,0.0541 -0.08475,0.108 -0.126953,0.16211 1.080157,0.35544 2.157752,0.71955 3.259762,1.00195 0.95748,0.20915 1.93806,0.28776 2.91407,0.35156 0.51127,0.0333 1.00442,-0.0525 1.41211,-0.37109 0.42815,-0.31644 0.74204,-0.75411 0.98828,-1.22071 0.29249,-0.54227 0.458,-1.13179 0.58593,-1.73046 -0.002,-0.0518 0.0104,-0.19891 -0.043,-0.25391 -0.0209,-0.0215 -0.0583,0.0265 -0.0879,0.0215 -0.10739,-0.0172 -0.36294,-0.13059 -0.41211,-0.15039 -0.14771,-0.0599 -0.29443,-0.12288 -0.44336,-0.17968 -0.52611,-0.20076 -1.06482,-0.36465 -1.58789,-0.57422 -0.77528,-0.31064 -0.96084,-0.4141 -1.76368,-0.78907 -1.97996,-0.93088 -3.932874,-1.91638 -5.873043,-2.92578 z" />
  <path
     style="fill:#000000;fill-rule:evenodd"
     d="m 98.628785,267.90215 c 90.793205,-0.12438 87.808225,6.84058 87.808225,6.84058 l -90.544459,-0.99499 z"
     id="path53" />
  <path
     style="fill:#000000;fill-rule:evenodd"
     d="m 188.92449,270.38963 -3.23373,4.3531 z"
     id="path54" />
  <path
     style="fill:#000000;fill-rule:evenodd"
     d="m 187.30763,273.00149 c 5.09934,-0.87062 7.46245,1.24374 7.46245,1.24374 l -8.70619,0.37313 z"
     id="path55" />
  <path
     style="fill:#000000;fill-rule:evenodd"
     d="m 200.86442,268.77277 -4.85059,5.22372 -9.7012,0.74624 14.80054,-5.09934 z"
     id="path56" />
  <path
     style="fill:#ffffff;fill-rule:evenodd"
     d="m 39.799762,172.63147 c 0.186561,3.73122 0.684058,8.08432 1.119368,9.82556 0.43531,1.74124 2.363111,6.09434 2.674047,6.65403 0.310935,0.55968 -5.907778,-7.52465 -5.907778,-7.52465 z"
     id="path60" />
  <path
     style="fill:#ffffff;fill-rule:evenodd"
     d="m 42.535995,186.68575 c -1.492491,-4.29091 -2.674046,-4.22872 -2.922795,-11.5668 -0.248748,-7.33808 -0.808432,9.88775 -0.808432,9.88775 z"
     id="path61" />
  <path
     style="fill:#ffffff;fill-rule:evenodd"
     id="path66"
     d="m 36.434808,178.74652 c 0.05375,0.36399 0.08352,0.49503 0.09929,0.84998 0.0021,0.0466 0.02687,0.17116 -0.0078,0.13985 -0.04947,-0.0447 0.107952,-0.70521 -0.03517,0.0123 -0.03707,0.52666 -0.0062,1.05461 -0.01,1.58229 -0.02356,0.4191 0.110397,0.83001 0.270233,1.21107 0.03429,0.0818 0.08192,0.15841 0.107409,0.24333 0.0093,0.0309 -0.03845,-0.0518 -0.05768,-0.0777 0.0652,0.19015 0.130411,0.3803 0.195616,0.57044 0.04313,0.0952 0.08664,0.19022 0.129374,0.28559 0.0037,0.008 -0.01604,-0.016 -0.01225,-0.0242 0.390825,-0.84695 1.48818,-1.64745 1.191755,-2.53188 -0.256333,-0.7648 -0.999912,1.2776 -1.372333,1.9931 -0.09905,0.19029 0.308435,0.97117 0.344857,1.05204 -0.0313,-0.0566 -0.05499,-0.11808 -0.0939,-0.16971 -0.01889,-0.0251 0.02802,0.0573 0.03257,0.0883 9.61e-4,0.007 -0.02107,-0.008 -0.01986,-0.002 0.0313,0.17028 0.151737,0.57275 0.190864,0.71693 0.03017,0.11116 0.05784,0.22299 0.08676,0.33448 0.01038,0.0542 0.04779,0.25672 0.06264,0.30211 0.01345,0.0411 -0.01635,-0.085 -0.02452,-0.12747 0.06462,0.21136 0.139003,0.41997 0.193863,0.63406 0.01132,0.0442 -0.05922,-0.16721 -0.06258,-0.12171 -0.0056,0.0759 0.03682,0.14759 0.05523,0.22138 0.05264,-0.0807 0.173074,0.84023 0.242979,0.748 0.06579,-0.0868 -0.137091,-0.41359 -0.102258,-0.31038 0.178365,0.52849 0.224889,0.62852 0.128243,0.40848 0.204086,0.47454 0.04223,0.11316 0.0339,0.0841 -0.02483,-0.0866 -0.08773,-0.34948 -0.06151,-0.26326 0.0572,0.18811 0.11034,0.37767 0.15456,0.56925 0.01367,0.0593 -0.08429,-0.22814 -0.06271,-0.17129 0.05325,0.14029 0.105153,0.28108 0.157729,0.42162 0,0 3.43163,-1.5839 3.43163,-1.5839 v 0 c 0.0261,0.0832 0.102552,0.33326 0.0783,0.24953 -0.03343,-0.11542 -0.102092,-0.46471 -0.105837,-0.3446 -0.0047,0.15133 -0.0055,0.33663 0.102786,0.44244 0.123428,0.1206 -0.196315,-0.78314 -0.176524,-0.69455 -0.02414,-0.0616 -0.08438,-0.24973 -0.07242,-0.18469 0.02231,0.12134 0.135379,0.47453 0.103784,0.35527 -0.04013,-0.15149 -0.08627,-0.30132 -0.129404,-0.45198 0.0143,0.0459 0.05196,0.1848 0.0429,0.13762 -0.01024,-0.0534 -0.08563,-0.28695 -0.102494,-0.34033 -0.0046,-0.0179 -0.225404,-0.9172 -0.247777,-0.80401 -0.03627,0.18353 0.0853,0.36522 0.149287,0.54102 0.02702,0.0742 -0.02345,-0.15625 -0.03752,-0.23398 -0.02651,-0.14645 -0.08208,-0.28704 -0.09502,-0.43628 -0.323067,-1.23394 0.06451,0.23308 -0.190819,-0.70081 -0.117121,-0.42839 -0.185442,-0.86731 -0.41928,-1.25424 0.0088,0.023 0.253887,0.57111 0.185366,0.68027 -0.409526,0.65241 -1.268805,2.6158 -1.380015,1.85357 -0.227945,-1.56231 1.775375,-1.76818 1.192729,-2.73688 -0.0075,0.003 -0.01999,0.0169 -0.0224,0.009 -0.06864,-0.21901 -0.114539,-0.4447 -0.182782,-0.66384 -0.01948,-0.0626 -0.05188,-0.12036 -0.07988,-0.17959 -0.0027,-0.006 -0.01239,-0.0211 -0.01203,-0.0148 0.0084,0.14614 0.0178,0.29244 0.03636,0.43765 0.006,0.0467 0.001,-0.0941 0.0015,-0.14119 0.0017,-0.24792 0.0022,-0.49569 -0.0018,-0.7436 -0.0016,-0.0953 -0.0037,-0.19055 -0.0061,-0.28581 -0.0013,-0.0533 0.04483,-0.17845 -0.0051,-0.15983 -0.0537,0.02 -0.01542,0.11357 -0.02313,0.17036 -0.08604,0.34804 0.02645,-0.10434 0.03498,-0.15936 0.08069,-0.52056 0.04585,-1.04101 -0.02332,-1.56114 -0.03211,-0.24142 -0.07903,-0.48065 -0.118551,-0.72097 z" />
  <path
     style="fill:#ffffff;fill-rule:evenodd"
     id="path67"
     d="m 36.559182,181.29619 c 0.282973,0.99728 0.620681,1.97721 0.95624,2.95754 0.330637,0.96595 0.14773,0.45353 0.391751,1.12672 0,0 3.551976,-1.29163 3.551976,-1.29163 v 0 c -0.438995,-1.20249 -0.832301,-2.42182 -1.217228,-3.64249 z" />
  <path
     style="fill:#ffffff;fill-rule:evenodd"
     id="path69"
     d="m 39.133239,182.10624 c 0.328632,0.5901 0.495084,1.24984 0.774782,1.86029 0,0 0.343166,-0.15839 0.343166,-0.15839 v 0 c -0.190114,-0.40847 0.0036,0.0219 -0.275965,-0.70614 -0.252984,-0.65879 -0.219829,-0.56121 -0.503932,-1.16479 z" />
  <rect
     style="fill:#ffffff;fill-rule:evenodd"
     id="rect77"
     width="2.3085794"
     height="1.9567958"
     x="68.00415"
     y="240.46602" />
  <rect
     style="fill:#ffffff;fill-rule:evenodd"
     id="rect78"
     width="2.9022141"
     height="1.9348093"
     x="76.512917"
     y="239.96033" />
  <rect
     style="fill:#ffffff;fill-rule:evenodd"
     id="rect79"
     width="1.2312423"
     height="2.5064576"
     x="81.723709"
     y="242.33487" />
  <rect
     style="fill:#ffffff;fill-rule:evenodd"
     id="rect80"
     width="3.917789"
     height="2.6429529"
     x="57.927311"
     y="219.02307" />
  <rect
     style="fill:#ffffff;fill-rule:evenodd"
     id="rect81"
     width="2.8295143"
     height="2.3631108"
     x="63.337589"
     y="225.05522" />
  <rect
     style="fill:#ffffff;fill-rule:evenodd"
     id="rect82"
     width="1.2092558"
     height="0.98939115"
     x="75.039825"
     y="234.06796" />
  <path
     style="fill:#ffffff;fill-rule:evenodd"
     id="path82"
     d="m 209.95916,181.80757 c 0.12317,0.66696 0.13696,1.3462 0.21935,2.01812 0.0211,0.17245 0.0513,0.34368 0.0782,0.51532 0.0139,0.089 0.0213,0.17944 0.0444,0.26647 0.0142,0.0536 0.0446,0.10159 0.0668,0.15239 0.0706,0.0377 0.14627,0.0672 0.21175,0.11326 0.0372,0.0261 0.0518,0.0796 0.0922,0.10042 0.53228,0.27389 0.97397,0.21559 1.53812,0.24101 0.19983,0.005 0.40632,0.0387 0.60617,0.018 0.0848,-0.009 0.18967,0.009 0.25053,-0.0509 0.38528,-0.37757 0.43105,-0.80613 0.57619,-1.30175 0.10415,-0.99106 0.13638,-0.94577 0.0955,-1.93341 -0.002,-0.039 -0.0664,-0.81364 -0.111,-0.96546 -0.0942,-0.32082 -0.27538,-0.5865 -0.44146,-0.87239 -0.2879,-0.33061 -0.34893,-0.50401 -0.80764,-0.61258 -0.17623,-0.0417 -0.36201,-0.0124 -0.54309,-0.0145 -0.48035,-0.006 -0.8419,-0.0571 -1.25581,0.32982 -0.26406,0.24682 -0.39591,0.60486 -0.59387,0.90728 -0.0717,0.32032 -0.1881,0.63382 -0.21506,0.96095 -0.0244,0.29609 0.0183,0.5953 0.0626,0.88908 0.0686,0.45522 0.22437,0.96427 0.68576,1.17004 0.0774,0.0345 0.16716,0.0281 0.25074,0.0422 0.15394,-0.0244 0.10533,-0.0526 0.1686,-0.003 0,0 0.0716,-0.3711 0.0716,-0.3711 v 0 c -0.18842,-0.0202 -0.11993,-0.0401 -0.21394,-0.003 -0.0227,0.007 -0.0457,0.0279 -0.068,0.0199 -0.12146,-0.0432 -0.31362,-0.20303 -0.36221,-0.31463 -0.0787,-0.1807 -0.12339,-0.37595 -0.15582,-0.57035 -0.14002,-0.83916 -0.0713,-0.7723 0.0976,-1.6221 0.14501,-0.25481 0.23327,-0.55171 0.43505,-0.76442 0.35929,-0.37877 0.65516,-0.28359 1.09385,-0.29284 0.13019,-0.003 0.26156,-0.037 0.39027,-0.0173 0.36296,0.0558 0.39531,0.19226 0.633,0.45706 0.0907,0.15434 0.33267,0.53328 0.39413,0.73833 0.0419,0.13991 0.10547,0.88278 0.10676,0.91224 0.0406,0.9321 0.0108,0.89779 -0.0808,1.82542 -0.0654,0.23114 -0.13049,0.46237 -0.19616,0.69344 -0.0326,0.11473 -0.031,0.24578 -0.0987,0.34396 -0.0327,0.0474 -0.11029,0.0359 -0.16754,0.0419 -0.19469,0.0205 -0.39608,-0.0129 -0.59073,-0.0177 -0.34094,-0.0146 -0.67451,0.0148 -1.01211,-0.0589 -0.6028,-0.13151 -0.037,-0.0497 -0.57726,-0.27851 -0.0351,-0.0149 0.0459,0.0608 0.0688,0.0913 -0.0107,-0.0152 -0.0276,-0.0275 -0.0321,-0.0455 -0.0211,-0.0857 -0.0298,-0.17401 -0.0435,-0.2612 -0.026,-0.16524 -0.0554,-0.33004 -0.0757,-0.49607 -0.0828,-0.67498 -0.097,-1.35735 -0.22038,-2.02739 z" />
  <ellipse
     style="fill:#1a1a1a;fill-rule:evenodd"
     id="path84"
     cx="208.8665"
     cy="180.46445"
     rx="5.9077773"
     ry="7.5868297" />
  <ellipse
     style="fill:#1a1a1a;fill-rule:evenodd;stroke-width:1.29935"
     id="path85"
     cx="204.88136"
     cy="182.26289"
     rx="2.3745387"
     ry="2.8582411" />
</svg>
