<?xml version="1.0" encoding="UTF-8" standalone="no"?>
<!-- Created with Inkscape (http://www.inkscape.org/) -->

<svg
   width="210mm"
   height="49mm"
   viewBox="0 0 210 49"
   version="1.1"
   id="svg1"
   xml:space="preserve"
   inkscape:version="1.3.2 (091e20e, 2023-11-25, custom)"
   sodipodi:docname="QuokkaTextLogo.svg"
   xmlns:inkscape="http://www.inkscape.org/namespaces/inkscape"
   xmlns:sodipodi="http://sodipodi.sourceforge.net/DTD/sodipodi-0.dtd"
   xmlns="http://www.w3.org/2000/svg"
   xmlns:svg="http://www.w3.org/2000/svg"><sodipodi:namedview
     id="namedview1"
     pagecolor="#d7d7d7"
     bordercolor="#000000"
     borderopacity="0.25"
     inkscape:showpageshadow="false"
     inkscape:pageopacity="0.0"
     inkscape:pagecheckerboard="true"
     inkscape:deskcolor="#e4e4e4"
     inkscape:document-units="mm"
     inkscape:zoom="2.0485264"
     inkscape:cx="243.83381"
     inkscape:cy="161.33548"
     inkscape:window-width="1920"
     inkscape:window-height="1009"
     inkscape:window-x="-8"
     inkscape:window-y="-8"
     inkscape:window-maximized="1"
     inkscape:current-layer="layer1"
     showborder="false"
     borderlayer="true"
     labelstyle="below" /><defs
     id="defs1"><rect
       x="48.324955"
       y="178.11198"
       width="115.97989"
       height="204.34554"
       id="rect1" /><inkscape:path-effect
       effect="spiro"
       id="path-effect66"
       is_visible="true"
       lpeversion="1" /><inkscape:path-effect
       effect="spiro"
       id="path-effect65"
       is_visible="true"
       lpeversion="1" /><inkscape:path-effect
       effect="bspline"
       id="path-effect64"
       is_visible="true"
       lpeversion="1.3"
       weight="33.333333"
       steps="2"
       helper_size="0"
       apply_no_weight="true"
       apply_with_weight="true"
       only_selected="false"
       uniform="false" /><inkscape:path-effect
       effect="bspline"
       id="path-effect62"
       is_visible="true"
       lpeversion="1.3"
       weight="33.333333"
       steps="2"
       helper_size="0"
       apply_no_weight="true"
       apply_with_weight="true"
       only_selected="false"
       uniform="false" /><inkscape:path-effect
       effect="powerclip"
       id="path-effect15"
       is_visible="true"
       lpeversion="1"
       inverse="true"
       flatten="false"
       hide_clip="false"
       message="Use fill-rule evenodd on &lt;b&gt;fill and stroke&lt;/b&gt; dialog if no flatten result after convert clip to paths." /><inkscape:path-effect
       effect="spiro"
       id="path-effect66-7"
       is_visible="true"
       lpeversion="1" /><inkscape:path-effect
       effect="spiro"
       id="path-effect65-7"
       is_visible="true"
       lpeversion="1" /><inkscape:path-effect
       effect="bspline"
       id="path-effect64-4"
       is_visible="true"
       lpeversion="1.3"
       weight="33.333333"
       steps="2"
       helper_size="0"
       apply_no_weight="true"
       apply_with_weight="true"
       only_selected="false"
       uniform="false" /><inkscape:path-effect
       effect="bspline"
       id="path-effect62-1"
       is_visible="true"
       lpeversion="1.3"
       weight="33.333333"
       steps="2"
       helper_size="0"
       apply_no_weight="true"
       apply_with_weight="true"
       only_selected="false"
       uniform="false" /><clipPath
       clipPathUnits="userSpaceOnUse"
       id="clipPath13"><g
         id="g15"
         style="display:none"><path
           style="fill:#ffffff;fill-rule:evenodd"
           d="m 35.197914,183.45203 c 0.621871,6.46746 17.602399,53.72842 30.78607,60.07151 13.183671,6.34309 26.642355,9.93786 28.135744,10.05094 1.188025,0.09 3.307605,0.71026 5.379676,0.27337 1.032646,-0.21773 1.368116,-1.74124 0.994996,-2.48748 -0.37313,-0.74625 -0.621874,-1.24374 -0.994996,-1.86562 -0.373123,-0.62187 -5.596842,-4.97497 -6.840584,-5.72121 -1.243743,-0.74625 -10.696187,-8.83057 -14.427414,-12.43742 -2.607129,-2.52023 -13.319089,-15.53735 -16.293027,-19.02927 -2.761896,-3.24294 -10.439282,-11.14801 -11.442432,-12.68617 -1.865614,-2.86061 -5.223718,-11.44243 -5.969964,-13.0593 -0.746245,-1.61686 -3.358105,-10.57181 -4.601847,-15.04928 -0.967647,-3.48353 -0.87062,-6.46746 -1.368117,-7.95996 -0.497497,-1.49249 -0.373123,-2.98498 -2.114362,-2.23873 -1.74124,0.74624 -2.61186,4.10435 -2.487485,4.85059 0.124374,0.74625 0.124374,13.5568 1.243742,17.28803 z"
           id="path13"
           sodipodi:nodetypes="cssssssssssssssc" /><path
           style="fill:#ffffff;fill-rule:evenodd"
           d="m 34.75,181.1875 c 0,0 2.826259,15.21444 3.4375,16.625 0.8125,1.875 6.875,17.125 7.25,17.5625 0.375,0.4375 10.5,17.375 10.5,17.375 L 47.5,203.1875 Z"
           id="path14"
           sodipodi:nodetypes="cssccc" /><path
           style="fill:#ffffff;fill-rule:evenodd"
           d="m 66.523437,243.78125 c 0,0 -4.648437,-1.28125 -8.273437,-5.65625 -3.625,-4.375 -8.875,-12.25 -9.375,-13.625 -0.5,-1.375 -5.25,-11.375 -5.5,-12.25 -0.25,-0.875 -6,-16.5 -6.25,-18.75 -0.22766,-2.04894 5.125,2.25 5.125,2.25 z"
           id="path15"
           sodipodi:nodetypes="csssscc" /></g><path
         id="lpe_path-effect15"
         class="powerclip"
         d="M 9.1975053,0.51444648 H 279.83156 V 279.74273 H 9.1975053 Z M 35.197914,183.45203 c 0.621871,6.46746 17.602399,53.72842 30.78607,60.07151 13.183671,6.34309 26.642355,9.93786 28.135744,10.05094 1.188025,0.09 3.307605,0.71026 5.379676,0.27337 1.032646,-0.21773 1.368116,-1.74124 0.994996,-2.48748 -0.37313,-0.74625 -0.621874,-1.24374 -0.994996,-1.86562 -0.373123,-0.62187 -5.596842,-4.97497 -6.840584,-5.72121 -1.243743,-0.74625 -10.696187,-8.83057 -14.427414,-12.43742 -2.607129,-2.52023 -13.319089,-15.53735 -16.293027,-19.02927 -2.761896,-3.24294 -10.439282,-11.14801 -11.442432,-12.68617 -1.865614,-2.86061 -5.223718,-11.44243 -5.969964,-13.0593 -0.746245,-1.61686 -3.358105,-10.57181 -4.601847,-15.04928 -0.967647,-3.48353 -0.87062,-6.46746 -1.368117,-7.95996 -0.497497,-1.49249 -0.373123,-2.98498 -2.114362,-2.23873 -1.74124,0.74624 -2.61186,4.10435 -2.487485,4.85059 0.124374,0.74625 0.124374,13.5568 1.243742,17.28803 z M 34.75,181.1875 c 0,0 2.826259,15.21444 3.4375,16.625 0.8125,1.875 6.875,17.125 7.25,17.5625 0.375,0.4375 10.5,17.375 10.5,17.375 L 47.5,203.1875 Z M 66.523437,243.78125 42.25,195.75 c 0,0 -5.35266,-4.29894 -5.125,-2.25 0.25,2.25 6,17.875 6.25,18.75 0.25,0.875 5,10.875 5.5,12.25 0.5,1.375 5.75,9.25 9.375,13.625 3.625,4.375 8.273437,5.65625 8.273437,5.65625 z" /></clipPath></defs><g
     inkscape:label="Layer 1"
     inkscape:groupmode="layer"
     id="layer1"><path
       d="m 51.85064,24.17348 c 0,11.014273 6.812952,19.871111 17.03238,19.871111 4.31487,0 7.948444,-1.589689 10.843949,-4.258095 l 2.72518,2.781955 c 0.624521,0.624521 1.192267,0.908394 1.816788,0.908394 1.305816,0 2.384533,-1.305816 2.384533,-2.611632 0,-0.73807 -0.283873,-1.36259 -0.794844,-1.930336 l -2.95228,-3.065829 C 84.893457,32.519347 85.9154,28.658674 85.9154,24.17348 c 0,-10.957498 -6.812952,-19.5304623 -17.03238,-19.5304623 -10.219428,0 -17.03238,8.5729643 -17.03238,19.5304623 z m 25.094373,5.507137 c -0.567746,-0.567746 -1.192266,-0.851619 -1.816787,-0.851619 -1.36259,0 -2.441308,1.249041 -2.441308,2.611631 0,0.73807 0.227098,1.305816 0.73807,1.816788 l 2.781955,2.895504 c -1.930336,1.703238 -4.371644,2.554857 -7.323923,2.554857 -7.551022,0 -12.149765,-6.41553 -12.149765,-14.534298 0,-8.005218 4.598743,-14.2504244 12.149765,-14.2504244 7.551022,0 12.149764,6.2452064 12.149764,14.2504244 0,2.95228 -0.62452,5.620686 -1.816787,7.948445 z m 15.158786,4.371644 c 0,6.529079 2.781955,9.99233 8.686511,9.99233 2.04389,0 3.74713,-0.567746 5.05294,-1.646464 0.39742,0.73807 1.13549,1.078718 2.21421,1.078718 1.58969,0 2.38454,-0.851619 2.38454,-2.554857 V 23.321861 c 0,-1.760012 -0.79485,-2.611631 -2.38454,-2.611631 -1.64646,0 -2.49808,0.851619 -2.49808,2.611631 v 10.7304 c 0,2.668406 -1.70324,4.655517 -4.48519,4.655517 -2.895509,0 -4.087775,-1.646463 -4.087775,-4.655517 v -10.7304 c 0,-1.816787 -0.624521,-2.611631 -2.384534,-2.611631 -1.646463,0 -2.498082,0.851619 -2.498082,2.611631 z m 24.753741,-1.930336 c 0,6.812952 4.31487,11.922666 9.822,11.922666 5.50714,0 9.82201,-5.109714 9.82201,-11.922666 0,-6.983276 -4.31487,-11.922667 -9.82201,-11.922667 -5.50713,0 -9.822,4.939391 -9.822,11.922667 z m 14.76139,0 c 0,4.144545 -2.15743,6.585853 -4.93939,6.585853 -2.72518,0 -4.93939,-2.441308 -4.93939,-6.585853 0,-4.258095 2.21421,-6.642629 4.93939,-6.642629 2.78196,0 4.93939,2.384534 4.93939,6.642629 z m 18.22469,0 9.02717,-6.642629 c 0.62452,-0.510971 0.96516,-1.192266 0.96516,-2.043885 0,-1.362591 -1.13549,-2.725181 -2.49808,-2.725181 -0.51097,0 -0.96517,0.170324 -1.47614,0.567746 l -8.06199,6.245206 V 7.7656208 c 0,-1.7600127 -0.79485,-2.6116317 -2.38453,-2.6116317 -1.64647,0 -2.49809,0.851619 -2.49809,2.6116317 V 40.921988 c 0,1.703238 0.85162,2.554857 2.49809,2.554857 1.58968,0 2.38453,-0.851619 2.38453,-2.554857 v -4.258095 l 8.23232,6.245206 c 0.62452,0.454197 1.07871,0.567746 1.53291,0.567746 1.30582,0 2.49808,-1.249041 2.49808,-2.668406 0,-0.851619 -0.39742,-1.646464 -1.07872,-2.100661 z m 22.59634,0 9.02716,-6.642629 c 0.62452,-0.510971 0.96517,-1.192266 0.96517,-2.043885 0,-1.362591 -1.13549,-2.725181 -2.49808,-2.725181 -0.51097,0 -0.96517,0.170324 -1.47614,0.567746 l -8.062,6.245206 V 7.7656208 c 0,-1.7600127 -0.79484,-2.6116317 -2.38453,-2.6116317 -1.64646,0 -2.49808,0.851619 -2.49808,2.6116317 V 40.921988 c 0,1.703238 0.85162,2.554857 2.49808,2.554857 1.58969,0 2.38453,-0.851619 2.38453,-2.554857 v -4.258095 l 8.23232,6.245206 c 0.62452,0.454197 1.07872,0.567746 1.53292,0.567746 1.30581,0 2.49808,-1.249041 2.49808,-2.668406 0,-0.851619 -0.39742,-1.646464 -1.07872,-2.100661 z m 23.10735,-11.922667 c -5.50713,0 -9.822,4.939391 -9.822,11.922667 0,6.812952 4.31487,11.922666 9.822,11.922666 1.98711,0 3.74712,-0.624521 5.16649,-1.816787 0.34065,0.851619 1.07872,1.249041 2.15743,1.249041 1.64647,0 2.49809,-0.908394 2.49809,-2.668406 V 23.435411 c 0,-1.816788 -0.85162,-2.725181 -2.49809,-2.725181 -1.07871,0 -1.81678,0.454197 -2.15743,1.305816 -1.41937,-1.192267 -3.17938,-1.816788 -5.16649,-1.816788 z m -4.93939,11.922667 c 0,-4.258095 2.21421,-6.642629 4.93939,-6.642629 2.72518,0 4.88262,2.270984 4.93939,6.301981 v 0.340648 c 0,4.144545 -2.15743,6.585853 -4.93939,6.585853 -2.72518,0 -4.93939,-2.441308 -4.93939,-6.585853 z"
       id="text1"
       style="font-weight:bold;font-size:56.7746px;font-family:Primer;-inkscape-font-specification:'Primer, Bold';fill-rule:evenodd;stroke-width:4.73121"
       aria-label="Quokka" /><g
       id="g2"
       clip-path="url(#clipPath13)"
       inkscape:path-effect="#path-effect15"
       transform="matrix(0.15853507,0,0,0.15853507,2.8920787,2.5760343)"><path
         id="path1"
         style="display:inline"
         d="M 227.48438,5.515625 C 224.63046,5.4875998 221.92325,5.958741 219.5,7 c -1.1,0.472942 -3.8135,0.8906875 -6.02734,0.9296875 -2.216,0.038 -4.916,0.6609406 -6,1.3808594 -1.085,0.7208841 -3.87066,1.9125531 -6.1875,2.6484371 -2.319,0.736 -5.21194,2.39557 -6.42578,3.689454 -1.215,1.292768 -2.62216,2.351562 -3.125,2.351562 -0.505,0 -2.70463,1.530507 -4.89063,3.400391 -4.766,4.079536 -6.10012,4.314575 -31.55664,5.527343 -10.56584,0.504 -21.592,1.399188 -24.5,1.992188 -3.793,0.772884 -6.84211,0.769272 -10.78711,-0.01172 -43.582896,-8.627956 -65.507457,8.699923 -67.662109,53.470703 -0.396,8.233072 -0.880482,10.521817 -2.90625,13.730469 C 48.094757,98.22616 47.152104,100.25493 47,100.52734 c -1.243627,2.2275 -14.404384,20.49865 -21.304688,28.27149 -1.421768,1.601 -3.18401,3.88031 -4.384765,7.37305 -1.32613,2.49659 -2.178819,5.78876 -3.095703,9.82812 -0.690006,5.64821 -2.764101,11.68571 -3.833985,28.93555 -0.547884,8.83284 0.08379,13.69061 2.550782,19.56445 0.461884,1.1 1.419953,4.025 2.126953,6.5 1.919768,6.72084 13.576698,29.81616 17.240234,34.16016 5.778304,6.84984 8.384429,10.30284 9.695313,12.83984 1.519768,2.942 9.977991,11 11.546875,11 0.596884,0 2.406716,1.38036 4.021484,3.06836 3.366652,3.519 7.41308,5.56044 12.4375,6.27344 1.924768,0.273 6.200348,1.29262 9.5,2.26562 5.06042,1.493 10.515394,1.7946 34.84961,1.9336 18.73568,0.107 29.078,0.52807 29.5,1.20507 3.08332,0.13327 6.19569,-0.37791 11.14453,-0.0605 4.95,0.312 14.09422,0.15672 16.44922,0.51172 2.728,0.411 4.57043,0.32919 7.67578,0.26171 8.89246,-0.0394 3.26121,-0.0221 6.88086,-0.12109 24.31368,-0.516 46.51515,-9.63252 67.67383,-29.7832 4.04184,-3.85 8.24928,-10.07969 9.82422,-12.55469 1.49198,-2.34464 3.22306,-4.46936 4.76562,-9.32812 1.52382,-5.92418 3.73372,-65.83469 1.83203,-71.47852 -2.24009,-5.51368 -3.34033,-9.66572 -4.0957,-11.66797 -0.61562,-1.63181 -0.71006,-1.64517 -1.33398,-3.57617 -0.17781,-0.55033 -0.70191,-1.62736 -1.00391,-3.69336 -1.554,-10.65584 -2.62875,-15.62289 -3.59375,-16.58789 -1.651,-1.651 -1.27614,-4.87247 1.13086,-9.73047 7.21684,-14.56438 5.1447,-60.542895 -3.49414,-77.544923 C 254.97433,15.143154 239.84906,5.6370559 227.48438,5.515625 Z M 224.50391,26.34375 C 233.19154,26.626312 244,32.184993 244,38.154297 c 0,1.029884 0.394,2.654491 0.875,3.609375 4.24,8.413956 5.91614,43.981497 2.49414,52.939453 -3.937,10.308835 -19.80977,-2.530127 -41.43945,-33.519531 -6.802,-9.744956 -10.49261,-22.156051 -7.34961,-24.720703 3.53984,-2.890652 12.82242,-7.457516 15.19726,-7.478516 0.948,-0.009 2.39766,-0.451491 3.22266,-0.984375 1.94675,-1.257884 4.60764,-1.750437 7.50391,-1.65625 z m -128.31641,21.25 c 1.292634,-0.06762 2.278147,-0.05948 2.644531,0.04102 0.732,0.20044 2.231029,0.36523 3.332029,0.36523 2.662,0 1.82105,2.294538 -1.09179,2.982422 C 97.17027,51.903306 76,70.201576 76,72.652344 76,73.393228 75.497812,74 74.882812,74 c -0.692884,0 -0.857546,-0.854116 -0.435546,-2.25 0.373884,-1.236884 0.909453,-4.275232 1.189453,-6.75 0.521884,-4.60942 2.053435,-8.725232 3.908203,-10.5 5.22142,-4.99642 6.729877,-5.801188 12.154297,-6.492188 1.595268,-0.202884 3.195647,-0.346437 4.488281,-0.414062 z m 69.37109,5.591797 c 1.49781,0.05995 3.02251,0.221172 4.72266,0.529297 4.04187,0.737978 5.13407,0.818753 6.89063,1.285156 2.40835,0.639659 3.17834,0.705939 5.40234,5.568359 2.115,4.622536 8.59939,14.221377 12.90039,19.091797 0.564,0.638 3.489,4.463464 6.5,8.5 10.92084,14.637834 25.55738,26.846364 36.19922,30.193364 5.62384,1.76884 6.19015,5.36995 7.82617,12.0957 0.68406,2.81268 2.91412,7.38957 4.39844,14.11328 0.44,1.16218 0.89228,3.5125 1.61328,5.4375 2.425,6.48084 3.87247,44.11416 2.23047,58 -2.379,20.13068 -23.48167,38.45666 -50.74219,44.0625 -2.2,0.452 -6.25,1.40539 -9,2.11523 -5.20784,1.347 -28.74032,1.4995 -48,0.3125 -9.53184,-0.588 -10.163,-0.77001 -13.5,-3.88085 C 129.598,247.43538 119.46016,240 118.53516,240 c -0.253,0 -3.29005,-2.04116 -6.74805,-4.53516 -3.459,-2.49284 -7.86211,-5.59848 -9.78711,-6.89648 -10.677724,-7.20484 -14.237782,-14.55527 -7.058594,-14.57227 0.857884,-0.002 3.133826,-0.96562 5.058594,-2.14062 1.925,-1.176 7.1,-3.9728 11.5,-6.2168 32.27952,-16.46468 42.79435,-40.38672 21.63867,-49.22656 -8.28384,-3.462 -26.14624,2.45914 -36.080076,11.95898 -1.957768,1.871 -5.358826,3.9663 -7.558594,4.6543 -2.199768,0.689 -4.900116,1.588 -6,2 -13.699376,5.12 -21.855272,4.57045 -22.660156,-1.52539 -0.364,-2.75 -0.814,-5.9 -1,-7 -0.283,-1.667 1.829916,-3.08316 12.68164,-8.5 28.241526,-14.09884 36.763766,-33.39774 21.080078,-47.73242 -5.711304,-5.221 -7.556635,-5.9298 -18.443359,-7.0918 -7.060188,-0.753 -6.904159,-1.35789 1.841797,-7.177733 1.924768,-1.280884 7.55058,-6.226699 12.5,-10.990235 9.92384,-9.54884 15.4431,-13.616276 23.58594,-17.382812 6.34284,-2.933652 19.98145,-7.075794 22.05078,-7.625 0.99389,-0.263838 3.17697,-1.07649 5.92578,-2.195312 2.70484,-1.119938 6.9125,-2.273241 9.9375,-2.955079 2.97901,-0.671355 7.34911,-1.353824 10,-1.589843 1.59073,-0.09294 3.06194,-0.134172 4.55859,-0.07422 z m -14.19336,21.9375 c -1.77158,-0.01794 -4.51084,0.74496 -8.14843,2.277344 -6.407,2.697652 -13.57085,8.849189 -15.83985,13.599609 -0.919,1.924768 -2.05443,4.281444 -2.52343,5.236328 -5.275,10.738842 2.1658,19.267512 17.64648,20.228512 6.04884,0.376 12.4753,1.13832 14.2793,1.69532 2.26784,0.702 4.24239,0.68403 6.40039,-0.0723 1.716,-0.598 4.37992,-1.08789 5.91992,-1.08789 7.72084,0 15.83589,-15.33366 11.21289,-21.1875 -0.571,-0.721884 -1.30953,-2.463257 -1.64453,-3.869141 C 177.25197,85.994355 164.88122,77 158.10938,77 155.91438,77 153.84,76.549884 153.5,76 c -0.35475,-0.574009 -1.07113,-0.866189 -2.13477,-0.876953 z m 2.0293,16.099609 c 0.97075,-0.0094 1.83541,0.393929 3.75391,1.195313 8.06184,3.368536 10.0004,10.148701 2.85156,9.970701 -18.42868,-0.457 -23.80984,-5.299109 -11,-9.894529 2.3465,-0.842 3.42378,-1.26211 4.39453,-1.271485 z M 74.28125,123.75391 c 2.88564,-0.094 5.295469,0.15642 6.011719,0.87304 1.807768,1.807 -8.333136,14.15039 -11.763672,14.15039 C 67.781413,138.77734 65.155768,138.9 63,140 c -2.155768,1.1 -4.09285,2 -4.302734,2 -2.261768,0 0.149082,-13.30856 2.802734,-15.47656 1.836018,-1.5 7.971849,-2.61294 12.78125,-2.76953 z m 120.05664,38.59375 c -2.4128,-0.12855 -4.99508,0.73555 -7.14258,2.95117 -4.35384,4.49184 -4.24784,7.97414 0.375,12.33398 5.57,5.253 10.2466,3.93975 13.8086,-3.87109 2.75572,-6.04793 -1.73285,-11.13126 -7.04102,-11.41406 z m -157.435546,0.44336 h 0.002 v 0.002 0.002 0.002 0.002 0.002 0.002 0.002 0.002 0.002 0.0117 0.0117 0.006 0.0117 0.006 0.0117 l 0.002,0.006 v 0.0117 0.004 0.004 0.0117 0.0117 0.0117 0.0117 0.004 0.0117 c 1.521954,0.12196 2.930078,5.78025 3.017578,12.85156 0.042,3.40424 0.798825,6.2245 1.076172,6.80859 0.456719,0.96181 0.636422,1.54414 1,2.53125 1.305814,3.54561 5.087317,13.46969 8.792969,17.04493 2.038768,1.96786 5.282263,5.35834 7.207031,7.5332 1.924768,2.17532 4.420038,4.61494 5.544922,5.42187 1.124884,0.80694 3.375116,3.26418 5,5.45704 1.624768,2.19386 4.176085,5.3441 5.667969,7 1.491768,1.6569 4.360279,5.03303 6.373047,7.5039 2.013652,2.47087 5.742341,5.90973 8.287109,7.64063 11.869839,8.07397 11.160989,12.2989 -1.339844,7.9707 -2.219037,-0.81356 -6.058435,-1.98939 -8.533203,-2.65234 -5.07076,-1.3588 -9.776554,-3.39249 -12.974609,-5.34375 0.0095,0.0167 0.01787,0.034 0.02734,0.0508 0.04882,0.0853 0.02445,0.0442 0.07227,0.12695 0.01643,0.0285 0.02212,0.0538 0.01953,0.0742 v 0.004 c 0.05749,0.0552 0.116705,0.10865 0.171875,0.16601 0.03527,0.0391 0.07454,0.0763 0.105469,0.11914 0.02001,0.0276 0.02131,0.0286 0.03711,0.0586 0.0154,0.0357 0.02612,0.0742 0.02539,0.11328 0.0046,-1e-5 0.0026,0 0.0078,0 0.06574,-2e-4 0.06574,0.0662 0,0.0664 -0.01648,3e-5 -0.0151,0 -0.02539,0 -0.0058,0.009 -0.0117,0.0201 -0.01758,0.0293 -0.01166,0.004 -0.02356,0.007 -0.03516,0.0117 v 0.002 c 2.42e-4,0.005 -0.0021,0.008 -0.0039,0.0117 0.0065,0.002 0.01302,0.003 0.01953,0.004 0.07446,0.003 0.03696,-0.001 0.109374,0.006 0.120057,0.007 0.108951,0.11022 0.0098,0.12304 0.0058,9.9e-4 0.01406,0.008 0.0293,0.0117 0.04627,0.0129 0.01274,0.0343 -0.01367,0.0469 v 0.002 c 0.01842,0.007 -0.01028,0.0103 -0.0098,0.0215 0.0024,7.8e-4 0.0054,0.004 0.0078,0.006 0.06258,0.0201 0.04109,0.0827 -0.02148,0.0625 -0.01304,-0.005 -0.0261,-0.01 -0.03906,-0.0137 -0.01938,-0.007 -0.03098,-0.0164 -0.03516,-0.0273 -0.0281,-0.006 -0.05634,-0.0109 -0.08398,-0.0176 -0.03027,-0.007 -0.0422,-0.0255 -0.03906,-0.041 -0.02208,-0.008 -0.04491,-0.014 -0.06641,-0.0234 -0.01458,-0.006 -0.02448,-0.0148 -0.0293,-0.0234 -0.0176,-7.6e-4 -0.03517,-0.002 -0.05273,-0.004 -0.04056,-0.005 -0.005,-0.0283 -0.002,-0.0449 -0.0026,7e-5 -0.0053,2.5e-4 -0.0078,0 -0.0031,0 -0.0047,-9.5e-4 -0.0078,-0.002 -0.01471,-0.004 -0.02884,-0.008 -0.04297,-0.0137 -0.017,-0.008 -0.03197,-0.0174 -0.04492,-0.0312 -0.0013,-0.001 -0.0026,-0.003 -0.0039,-0.004 h -0.05078 c -0.01644,0 0.0043,-0.0113 -0.0039,-0.0176 -0.0258,-0.002 -0.04138,-0.0129 -0.04687,-0.0254 -0.01433,-0.002 -0.02877,-0.004 -0.04297,-0.008 -0.02776,-0.008 -0.05628,-0.02 -0.08203,-0.0332 -0.01763,-0.0113 -0.03672,-0.0194 -0.05273,-0.0332 -0.0032,-0.003 -0.0048,-0.007 -0.0078,-0.01 -0.03828,-0.006 -0.05827,-0.0237 -0.06641,-0.0449 -0.0032,-7.7e-4 -0.0066,-0.001 -0.0098,-0.002 -0.002,-4.6e-4 -0.0039,-0.001 -0.0059,-0.002 -0.0026,-5.9e-4 -0.0052,-0.001 -0.0078,-0.002 -0.0208,-0.005 -0.03456,-0.0144 -0.04102,-0.0254 -1.5e-5,-7.9e-4 -0.002,-0.001 -0.002,-0.002 -0.0021,-1.4e-4 -0.0037,3e-4 -0.0059,0 -0.0042,0 -0.0076,-0.003 -0.01172,-0.004 -0.02105,-0.008 -0.042,-0.0204 -0.06055,-0.0332 -0.01582,-0.0138 -0.0202,-0.0233 -0.01563,-0.0371 -0.02463,-0.001 -0.04926,-0.006 -0.07227,-0.0137 -0.02628,-0.0109 -0.05334,-0.0231 -0.07813,-0.0371 -0.02319,-0.0131 -0.04546,-0.0274 -0.06836,-0.041 -0.01359,-0.008 -0.02895,-0.0135 -0.04297,-0.0215 v -0.004 c -0.01799,-0.01 -0.02671,-0.0217 -0.0293,-0.0332 -0.01185,-0.003 -0.02372,-0.005 -0.03516,-0.01 -0.0058,-0.003 -0.01178,-0.007 -0.01758,-0.01 -0.0032,-0.001 -0.0067,-6.2e-4 -0.0098,-0.002 -0.02287,-0.01 -0.04497,-0.0225 -0.06641,-0.0352 -0.02844,-0.016 -0.05506,-0.0346 -0.08203,-0.0527 -0.01325,-0.005 -0.02596,-0.01 -0.03906,-0.0156 -0.006,-0.002 -0.01174,-0.005 -0.01758,-0.008 -0.0013,-10e-6 -0.0026,3e-5 -0.0039,0 v -0.002 c -0.01243,-0.006 -0.02483,-0.0112 -0.03711,-0.0176 -0.01265,-0.006 -0.0072,-0.005 -0.01953,-0.0117 -0.01435,-0.008 -0.0233,-0.0178 -0.02734,-0.0273 v -0.002 c -0.02513,-0.0118 -0.05051,-0.0229 -0.07617,-0.0351 -0.02984,-0.0131 -0.05934,-0.0292 -0.08789,-0.0449 -0.03045,-0.0179 -0.06123,-0.0351 -0.0918,-0.0527 -0.0514,-0.029 -0.101804,-0.0593 -0.152344,-0.0898 -0.05449,-0.0333 -0.108569,-0.0631 -0.162109,-0.0977 -0.06561,-0.0426 -0.1297,-0.0894 -0.19336,-0.13477 -0.05405,-0.0385 -0.107523,-0.0763 -0.158203,-0.11914 -0.0025,-0.002 -0.0035,-0.01 -0.0059,-0.0117 -0.01339,-0.009 -0.02779,-0.0164 -0.04102,-0.0254 -0.03456,-0.0238 -0.06952,-0.0477 -0.103515,-0.0723 -0.03034,-0.0214 -0.05985,-0.0429 -0.08984,-0.0645 -0.02931,-0.0216 -0.05721,-0.044 -0.08594,-0.0664 -0.02376,-0.0185 -0.04707,-0.0395 -0.07031,-0.0586 -0.02431,-0.019 -0.0492,-0.0361 -0.07227,-0.0566 -0.03484,-0.0291 -0.07006,-0.0572 -0.103515,-0.0879 -0.05056,-0.0466 -0.100448,-0.0933 -0.148438,-0.14257 -0.04642,-0.0474 -0.09305,-0.0964 -0.140625,-0.14258 -0.02811,-0.0257 -0.056,-0.0486 -0.08594,-0.0723 v -0.0117 c -0.02064,-0.0163 -0.02562,-0.0358 -0.02148,-0.0488 -0.08793,-0.0309 -0.171643,-0.0351 -0.267578,-0.13477 -0.16696,-0.17378 -0.326335,-0.35459 -0.490234,-0.53125 -0.127684,0.006 -0.284625,-0.0496 -0.445313,-0.19531 -0.04623,-0.042 -0.09439,-0.0831 -0.140625,-0.125 -0.232322,-0.21264 -0.465864,-0.42466 -0.683594,-0.65235 -0.14054,0.0773 -0.338931,0.0566 -0.550781,-0.18945 -0.09678,-0.11237 -0.190582,-0.22744 -0.277343,-0.34765 -0.235064,-0.30966 -0.456276,-0.63057 -0.681641,-0.94727 -0.277202,-0.39631 -0.561325,-0.78812 -0.863281,-1.16602 -0.358816,-0.45374 -0.719289,-0.90612 -1.076172,-1.36132 -0.263409,-0.34857 -0.528113,-0.69996 -0.738282,-1.08399 -0.138183,-0.25262 -0.123111,-0.45174 -0.03125,-0.56445 -7.59e-4,-9.9e-4 -0.0011,-0.003 -0.002,-0.004 -0.009,-0.01 -0.01831,-0.0195 -0.02734,-0.0293 -0.02085,0.10286 -0.154033,0.14187 -0.263672,-0.0117 -0.03401,-0.045 -0.06755,-0.0879 -0.101563,-0.13282 -0.03463,-0.0494 -0.06974,-0.0984 -0.103515,-0.14843 -0.110633,-0.1637 -0.212441,-0.33335 -0.308594,-0.50586 -0.01584,-0.0244 -0.03328,-0.0496 -0.04883,-0.0742 -0.0018,-0.002 -0.004,-0.01 -0.0059,-0.0117 -0.183506,-0.17299 -0.34531,-0.36564 -0.492187,-0.57031 -0.103867,-0.14802 -0.189993,-0.30775 -0.267578,-0.47071 -0.06359,-0.099 -0.123319,-0.20039 -0.177735,-0.30468 -0.105812,-0.20285 -0.116819,-0.36507 -0.07031,-0.47461 -0.01809,-0.0685 -0.03542,-0.13718 -0.05469,-0.20508 -0.01119,-0.0334 -0.01993,-0.0676 -0.0293,-0.10156 -0.06284,-0.0361 -0.112181,-0.0945 -0.136719,-0.16211 -0.0076,-0.0209 -0.01073,-0.0447 -0.01563,-0.0664 -0.001,-0.0208 -0.0024,-0.0719 0,-0.11328 -0.06592,-0.016 -0.132636,-0.0494 -0.19336,-0.0879 -0.184505,-0.1164 -0.361901,-0.24804 -0.509765,-0.41016 -0.08745,-0.10305 -0.118433,-0.13339 -0.195313,-0.24804 -0.133456,-0.19907 -0.22938,-0.4206 -0.3125,-0.64454 -0.105906,-0.30006 -0.204975,-0.60165 -0.296875,-0.90625 0.0065,-0.0527 -0.01734,-0.12651 0,-0.17187 -0.05009,-0.0185 -0.09895,-0.0374 -0.146484,-0.0625 -0.01832,-0.01 -0.03838,-0.0171 -0.05469,-0.0293 -0.02942,-0.0231 -0.05471,-0.0526 -0.08203,-0.0781 0.05074,-0.0744 0.0928,-0.15496 0.146484,-0.22656 -3.054453,-1.4651 -8.556601,-9.83937 -10.33789,-19.01172 -0.01572,0.007 -0.03868,-0.006 -0.05078,-0.0371 -0.009,-0.0234 -0.01903,-0.0474 -0.0293,-0.0703 -0.0068,-0.0136 -0.01374,-0.0274 -0.02344,-0.0391 -0.02621,-0.0316 -0.02366,-0.0635 -0.0039,-0.0703 h 0.002 c -0.001,-0.004 -0.0028,-0.008 -0.0039,-0.0117 -0.0057,-0.0235 -0.01239,-0.0459 -0.02148,-0.0684 -0.01716,-0.04 -0.03747,-0.0791 -0.05469,-0.11914 -0.02346,-0.0547 -0.04641,-0.10876 -0.06836,-0.16406 -0.02889,-0.0726 -0.05698,-0.14511 -0.08789,-0.2168 -0.03909,-0.0896 -0.07863,-0.17949 -0.121094,-0.26758 -0.01429,-0.0293 -0.02616,-0.0569 -0.04102,-0.0859 -0.0219,-0.0427 -0.04516,-0.0859 -0.06641,-0.12891 -0.02553,-0.052 -0.04997,-0.10277 -0.07227,-0.15625 -0.01711,-0.0406 -0.03417,-0.0831 -0.05273,-0.12305 -0.01422,-0.0307 -0.02912,-0.0579 -0.04492,-0.0879 -0.01792,-0.034 -0.0038,-0.0587 0.01562,-0.0625 -0.02246,-0.0445 -0.04473,-0.0894 -0.06055,-0.13672 -0.0063,-0.0188 0.0044,-0.0266 0.0098,-0.0371 -0.0154,-0.0255 -0.03187,-0.0504 -0.04687,-0.0762 -0.02641,-0.046 -0.05188,-0.0935 -0.07227,-0.14258 v -0.006 c -0.0091,-0.0165 -0.01766,-0.0353 -0.02539,-0.0527 -0.01557,-0.034 -0.03151,-0.0683 -0.03711,-0.10547 -0.0024,-0.016 0.0069,-0.0188 0.01172,-0.0273 -0.0023,-0.006 -0.0041,-0.0117 -0.0059,-0.0176 -0.01069,-0.004 -0.02128,-0.0121 -0.0293,-0.0293 -0.0038,-0.008 -0.0063,-0.0164 -0.0098,-0.0254 -0.0086,-0.0211 -0.01814,-0.0416 -0.02734,-0.0625 -0.0025,-0.006 -0.0052,-0.0137 -0.0078,-0.0195 -0.0014,-0.003 -0.0025,-0.007 -0.0039,-0.01 -0.01248,-0.0233 -0.02616,-0.0461 -0.03711,-0.0703 -0.01609,-0.036 -0.0324,-0.072 -0.04492,-0.10937 -0.0023,-0.007 0.0043,-0.006 0.0039,-0.0117 v -0.006 c -0.02134,-0.0515 -0.04198,-0.1024 -0.0625,-0.1543 -0.007,-0.0183 -0.01468,-0.0363 -0.02148,-0.0547 -8.5e-4,-0.002 -0.0012,-0.01 -0.002,-0.0117 v -0.002 c -3.91e-4,-9.9e-4 -0.0015,-0.0107 -0.002,-0.0117 v -0.002 c -4.14e-4,-9.7e-4 -0.0017,-0.007 -0.0039,-0.0117 -0.0074,-0.0174 -0.01418,-0.0333 -0.02148,-0.0508 -0.01117,-0.0253 -0.0223,-0.0526 -0.0332,-0.0781 -0.0042,-0.0103 -0.0075,-0.0197 -0.01172,-0.0293 -0.01008,-0.0248 -0.02095,-0.0493 -0.03125,-0.0742 -0.01829,-0.0439 -0.03618,-0.0882 -0.05273,-0.13281 -0.0081,-0.0223 -0.01193,-0.0285 -0.01953,-0.0508 -0.0047,-0.0139 -0.0062,-0.0305 -0.0098,-0.0449 -0.01127,-0.004 -0.02358,-0.0142 -0.03125,-0.0332 -0.0057,-0.0143 -0.01188,-0.0287 -0.01758,-0.043 -0.0056,-0.0147 -0.01029,-0.0299 -0.01563,-0.0449 -0.0082,0.002 -0.01709,0.0107 -0.02539,0.0117 -0.01233,9.9e-4 -0.02244,-0.01 -0.0332,-0.0156 -0.03202,-0.0183 -0.05503,-0.0486 -0.07813,-0.0762 -0.04079,-0.0498 -0.07719,-0.10241 -0.109375,-0.1582 -0.04576,-0.0792 -0.08682,-0.16014 -0.123047,-0.24414 -0.04928,-0.1109 -0.09536,-0.22379 -0.136719,-0.33789 -0.03977,-0.11226 -0.08003,-0.22348 -0.113281,-0.33789 -0.0363,-0.11904 -0.07341,-0.23826 -0.109375,-0.35742 -0.03489,-0.1126 -0.06624,-0.22682 -0.09961,-0.33985 -0.03969,-0.14032 -0.08165,-0.27956 -0.121094,-0.41992 -0.03306,-0.11531 -0.06792,-0.23055 -0.101563,-0.3457 -0.0094,-0.0181 -0.01803,-0.0366 -0.02734,-0.0547 -0.03973,-0.0795 -0.07556,-0.1618 -0.113282,-0.24219 -0.03941,-0.0794 -0.07738,-0.1581 -0.115234,-0.23828 -0.03616,-0.0754 -0.06901,-0.15231 -0.103516,-0.22851 -0.02608,-0.0578 -0.05203,-0.11604 -0.07813,-0.17383 -0.01387,-0.0323 -0.02708,-0.0673 -0.04102,-0.0996 -0.01162,-0.0269 -0.01685,-0.0527 -0.01758,-0.0742 -0.0054,-0.008 -0.01279,-7.4e-4 -0.01758,-0.0117 -0.01283,-0.0272 -0.02639,-0.0578 -0.03711,-0.0859 -0.01324,-0.0378 -0.02389,-0.0748 -0.03516,-0.11328 -0.01294,-0.0435 -0.02208,-0.0868 -0.0332,-0.13086 -0.0131,-0.0539 -0.0249,-0.10852 -0.03906,-0.16211 -0.0088,-0.0397 -0.02014,-0.0804 -0.03125,-0.11914 -0.02427,-0.0167 -0.04647,-0.0466 -0.06055,-0.0918 -0.0077,-0.0249 -0.0027,-0.0101 -0.0098,-0.0332 -0.01447,-0.0423 -0.02993,-0.0845 -0.04883,-0.125 -0.02848,-0.0596 -0.05927,-0.11842 -0.08398,-0.17969 -0.02302,-0.057 -0.04684,-0.11312 -0.07031,-0.16992 -0.0173,-0.0423 -0.03666,-0.0868 -0.05469,-0.1289 -0.01727,-0.0395 -0.0352,-0.0759 -0.05273,-0.11524 -0.0221,-0.0499 -0.04063,-0.10155 -0.06055,-0.15234 -0.02317,-0.0624 -0.0445,-0.12537 -0.0625,-0.18945 -0.02595,-0.0831 -0.05188,-0.16642 -0.07617,-0.25 -0.01982,-0.0677 -0.04444,-0.13691 -0.05273,-0.20704 -10e-4,-0.009 -0.0018,-0.0213 -0.002,-0.0293 -0.02659,-0.0655 -0.05586,-0.12857 -0.08398,-0.19336 -0.02172,-0.0485 -0.04358,-0.0956 -0.06445,-0.14453 -0.01752,-0.041 -0.02103,-0.0768 -0.01563,-0.10547 -0.0053,-0.0111 -0.01,-0.0224 -0.01563,-0.0332 -0.02141,-0.0402 -0.04224,-0.0805 -0.05859,-0.12305 -0.01288,-0.0294 -0.024,-0.0578 -0.03516,-0.0879 -0.01982,-0.0534 -0.01883,-0.0968 -0.0039,-0.12696 -0.02798,-0.0571 -0.05734,-0.11346 -0.08203,-0.17187 -0.04555,-0.11244 -0.09243,-0.22476 -0.125,-0.3418 -0.03578,-0.12923 -0.07099,-0.26053 -0.103516,-0.39062 -0.02739,-0.11254 -0.05796,-0.22218 -0.08789,-0.33399 -0.02122,0.01 -0.0464,-0.01 -0.04102,-0.0527 0.0017,-0.0137 -10e-4,-0.0259 -0.0039,-0.0391 -0.0045,-0.0169 -0.01008,-0.033 -0.01758,-0.0488 -0.0071,-0.0152 -0.01554,-0.0282 -0.02344,-0.043 -0.0067,-0.013 -0.01303,-0.028 -0.01953,-0.041 -0.0064,-0.0131 -0.01333,-0.0278 -0.01953,-0.041 -0.0073,-0.0164 -0.01238,-0.0298 -0.01758,-0.0469 -0.0062,-0.0222 -0.01152,-0.0477 -0.01563,-0.0703 -0.0035,-0.0182 -0.0067,-0.0365 -0.0098,-0.0547 -0.0033,-0.0159 -0.0061,-0.0327 -0.0078,-0.0488 -0.0013,-0.0151 10e-4,-0.0317 -0.002,-0.0469 -8e-4,-0.0189 -0.0052,-0.0365 -0.0098,-0.0547 -0.0044,-0.0188 -0.0098,-0.038 -0.01563,-0.0566 l -0.002,-0.002 c -0.0156,-0.0266 -0.03008,-0.0553 -0.04102,-0.084 -0.01233,-0.0317 -0.02456,-0.0634 -0.03516,-0.0957 -0.0061,-0.0185 -0.0056,-0.0347 0,-0.0449 -0.0068,-0.0199 -0.01253,-0.0381 -0.01758,-0.0586 v -0.006 c -8.11e-4,-9.9e-4 -0.0012,-0.01 -0.002,-0.0117 -0.0022,-0.005 -0.0043,-0.008 -0.0059,-0.0137 -0.01013,-0.04 -0.02509,-0.0784 -0.03906,-0.11719 -0.01703,-0.051 -0.0091,-0.0248 -0.02539,-0.0762 -0.004,-0.0127 -0.0054,-0.024 -0.0039,-0.0332 -0.0043,-0.009 -0.0079,-0.018 -0.01172,-0.0273 -0.0086,-0.0184 -0.01448,-0.0359 -0.02148,-0.0547 -0.0068,-0.0205 -0.01538,-0.0417 -0.02148,-0.0625 -0.0066,-0.0222 -0.01243,-0.0444 -0.01953,-0.0664 -0.0077,-0.0191 -0.01263,-0.0354 -0.01953,-0.0547 -0.0072,-0.02 -0.01433,-0.0401 -0.01953,-0.0606 -0.0052,-0.0236 -0.01053,-0.0505 -0.01563,-0.0742 -0.0051,-0.024 -0.0093,-0.0501 -0.01367,-0.0742 -0.0017,-0.0112 -0.0039,-0.0209 -0.0059,-0.0312 -0.0082,-0.008 -0.01541,-0.0223 -0.01758,-0.041 -1.41e-4,-0.001 1.86e-4,-0.009 0,-0.01 h -0.002 c -0.0035,-0.004 -0.0065,-0.0109 -0.0098,-0.0156 -0.0092,-0.0144 -0.01789,-0.0315 -0.02539,-0.0469 -0.0091,-0.0207 -0.01829,-0.041 -0.02539,-0.0625 -0.0053,-0.0178 -0.0073,-0.0386 -0.01172,-0.0566 -0.0046,-0.0169 -0.0076,-0.0338 -0.01172,-0.0508 -0.0041,-0.0155 -0.0083,-0.0331 -0.01172,-0.0488 -0.0032,-0.0134 -0.0069,-0.0256 -0.0098,-0.0391 -0.0038,-0.0161 -0.0069,-0.0325 -0.0098,-0.0488 -2.49e-4,-9.6e-4 2.11e-4,-0.003 0,-0.004 -8.12e-4,-9.4e-4 -0.0012,-0.01 -0.002,-0.0117 -0.0015,-0.003 -0.0027,-0.008 -0.0039,-0.0117 -0.0015,-0.005 -0.0025,-0.009 -0.0039,-0.0137 -0.01019,-0.0361 -0.0205,-0.0709 -0.0293,-0.10743 -0.0053,-0.0234 -0.01088,-0.05 -0.01367,-0.0742 v -0.002 c -0.0057,-0.0163 -0.01228,-0.0322 -0.01758,-0.0488 -0.0089,-0.0279 -0.01679,-0.056 -0.02539,-0.084 -0.0044,-0.0145 -0.0026,-0.0257 0,-0.0352 -0.0054,-0.0159 -0.01176,-0.0302 -0.01367,-0.0469 v -0.0117 c -0.0011,-0.002 -0.0024,-0.008 -0.0039,-0.0117 -0.0054,-0.0172 -0.01,-0.0328 -0.01172,-0.0508 -9.79e-4,-0.003 -0.0031,-0.007 -0.0039,-0.01 -0.0061,-0.0207 -0.01323,-0.0418 -0.01953,-0.0625 -0.01001,-0.0349 -0.02084,-0.0691 -0.02344,-0.10546 -0.0011,-0.0154 0.0013,-0.0288 0.0059,-0.0371 -0.0043,-0.0109 -0.0079,-0.0222 -0.01172,-0.0332 -0.01356,-0.0396 -0.0274,-0.0789 -0.03906,-0.11914 -0.007,-0.0235 -0.01393,-0.0465 -0.01953,-0.0703 -0.0024,-0.0139 -0.0043,-0.027 -0.0059,-0.041 -0.0025,-0.0214 0.0017,-0.0355 0.0098,-0.043 -0.02672,-0.0778 -0.05481,-0.15539 -0.07031,-0.23633 -0.02409,-0.10603 -0.03609,-0.21419 -0.04687,-0.32227 -0.01246,-0.004 -0.02451,-0.0178 -0.0293,-0.041 -0.0022,-0.0108 -0.0046,-0.0189 -0.0059,-0.0293 -0.0029,-0.0201 -0.0062,-0.0421 -0.0078,-0.0625 -4.5e-4,-0.003 -0.0014,-0.008 -0.002,-0.0117 v -0.0117 c -0.007,-0.008 -0.01879,10e-4 -0.01953,-0.0176 -8.21e-4,-0.0193 -2.35e-4,-0.0378 0,-0.0566 4e-6,-0.003 4e-6,-0.009 0,-0.0117 -0.0036,-0.0117 -0.0084,-0.025 -0.01172,-0.0371 -7.12e-4,-0.003 -0.0033,-0.008 -0.0039,-0.0117 v -0.006 -0.006 c -0.0039,-0.0154 -0.0076,-0.0332 -0.0098,-0.0488 -0.0047,-0.0306 -0.0086,-0.0613 -0.01367,-0.0918 -0.0027,-0.0161 -0.006,-0.0307 -0.0078,-0.0469 -8e-4,-0.009 -0.0023,-0.0163 -0.0039,-0.0254 -0.0014,-0.0117 -0.0042,-0.0254 -0.0059,-0.0371 -0.0012,-0.0111 -0.0027,-0.0221 -0.0039,-0.0332 v -0.0117 c -6.17e-4,-0.006 0.0035,-0.007 0.0039,-0.0117 -9.24e-4,-0.005 -0.0035,-0.009 -0.0039,-0.0137 -0.0018,-0.015 -0.0042,-0.0298 -0.0039,-0.0449 V 193 c 0,-0.0287 0.01304,-0.0433 0.02734,-0.0469 0.01839,-0.005 0.03906,0.01 0.03906,0.0469 v 0.0332 c -10e-5,0.0123 0.0018,0.0249 0.0039,0.0371 9.4e-5,9.9e-4 -1.58e-4,0.0107 0,0.0117 0.0021,-0.005 0.0024,-0.0117 0.0059,-0.0117 0.0014,1.5e-4 0.0025,0.01 0.0039,0.01 8.3e-4,-0.004 0.003,-0.008 0.0039,-0.0117 0.0036,-0.0166 0.0081,-0.0348 0.01367,-0.0508 0.0037,-0.0105 0.0087,-0.0178 0.01367,-0.0234 0.0023,-0.1388 0.0046,-0.2773 0.01367,-0.41602 0.0092,-0.13902 0.06681,-0.22286 0.134766,-0.25195 -0.257021,-1.02926 -0.355816,-1.33977 -0.585937,-2.25976 -0.06846,-0.05 -0.129727,-0.1379 -0.164063,-0.27149 -0.110276,-0.42904 -0.221858,-0.85922 -0.34375,-1.28515 -0.142989,-0.51368 -0.295499,-1.02402 -0.447266,-1.53516 -0.100075,-0.31487 -0.210329,-0.62665 -0.267578,-0.95313 -0.03176,-0.16938 -0.05398,-0.33963 -0.08008,-0.50976 -1.785343,-5.39972 -0.554197,-21.05096 0.804688,-22.42188 0.218625,-0.22044 0.438795,-0.31623 0.65625,-0.29882 z m 91.113276,4.35937 c 0.2475,-0.008 0.47881,0.01 1.17188,0.004 1.14641,-0.0246 1.61745,0.0767 2.86523,1.31836 1.06575,1.05954 1.77864,2.09877 0.70508,3.51953 -0.8631,1.14224 -0.8667,1.20486 -2.75,2.85937 -2.34737,2.25523 -8.5022,8.6876 -10.16406,9.60547 -0.0449,0.0248 -0.0885,0.0439 -0.13281,0.0664 -2.34226,1.79106 -15.94299,12.16397 -18.15039,12.62695 -2.400979,0.50329 -15.548975,6.75207 -17.054691,6.94531 -1.5056,0.19324 -2.264234,0.38232 -3.791015,0.0859 -0.918125,-0.17559 -0.752824,0.0948 -2.414063,-1.08398 -1.318439,-0.9356 -2.705535,-2.21561 -3.480469,-3.07032 -0.590608,-0.65152 -4.213871,-2.77864 -2.871093,-6.03125 1.24032,-3.0033 2.010854,-3.24861 4.3125,-3.67187 3.031941,-0.55758 8.443464,-1.55516 13.576172,-3.19141 5.909067,-1.88373 10.829349,-6.29481 13.455079,-8.47656 h -0.0117 c 0,0 0.12182,-0.0936 0.14453,-0.11133 0.0464,-0.0383 0.12123,-0.10191 0.16602,-0.13867 0.0117,-0.01 0.0222,-0.0194 0.0351,-0.0293 0.006,-0.005 0.0158,-0.0129 0.0215,-0.0176 h 0.004 c 0.0158,-0.0116 0.0433,-0.0253 0.0606,-0.0371 0.45359,-0.35159 1.17553,-0.90463 1.42773,-1.0586 0.39844,-0.24219 3.1107,-1.47347 3.51563,-1.70117 0.35245,-0.19819 2.2172,-1.0981 2.85742,-1.40625 3.9692,-2.10482 8.15264,-4.30004 8.91406,-4.73633 1.40755,-0.80532 4.81388,-1.76583 6.32227,-2.06836 0.75419,-0.15127 1.01927,-0.19356 1.26562,-0.20117 z m 66.3711,16.45508 c -1.31471,0.0592 -2.71789,0.40339 -4.00977,1.05664 -4.64884,2.352 -6.78307,7.43169 -4.95507,11.80469 2.65484,6.35684 11.70092,8.3682 16.04492,3.56836 1.839,-2.032 1.36809,-14.66872 -0.50391,-13.51172 -0.462,0.285 -1.20534,-0.12988 -1.65234,-0.92188 -0.78625,-1.3975 -2.73265,-2.09478 -4.92383,-1.99609 z m -152.072267,24.12891 -0.002,0.002 c 0.0012,0.001 0.0028,-0.001 0.0059,0.002 -0.0012,-0.001 -0.0027,-0.003 -0.0039,-0.004 z m 12.494141,19.79882 c -0.0021,0.004 -0.0038,0.008 -0.0059,0.0117 0.003,-9.2e-4 0.0068,-0.002 0.0098,-0.002 -9.79e-4,-0.003 -0.0029,-0.006 -0.0039,-0.01 z m -1.837891,0.68164 c 0.009,0.007 0.01788,0.0154 0.02539,0.0137 -0.0085,-0.004 -0.01685,-0.009 -0.02539,-0.0137 z m 1.113281,0.18946 c -0.0025,8e-4 -0.0053,-0.001 -0.0078,0.002 v 0.002 c 0.0026,-0.001 0.0052,-0.002 0.0078,-0.004 z m 0.501954,0.18359 c 0.01464,0.0269 0.01908,0.0345 0.02344,0.043 h 0.002 c -0.007,-0.0119 -0.01338,-0.0225 -0.02539,-0.043 z m -0.277344,0.15039 c -0.0025,0.001 -0.0052,-0.001 -0.0078,0.002 0.0026,4.4e-4 0.0031,-4.7e-4 0.0059,0 z m 0.902344,1.125 c -0.002,4.5e-4 -0.0038,0.002 -0.0059,0.002 -0.0012,0.003 -0.0028,0.007 -0.0039,0.01 0.004,-0.004 0.0072,-0.007 0.0098,-0.0117 z m 10.761718,13.47852 -0.002,0.002 c 0.0052,-10e-6 0.01041,-0.002 0.01563,-0.002 -0.0046,-7e-5 -0.0092,-1.8e-4 -0.01367,0 z"
         inkscape:original-d="M 227.48438,5.515625 C 224.63046,5.4875998 221.92325,5.958741 219.5,7 c -1.1,0.472942 -3.8135,0.8906875 -6.02734,0.9296875 -2.216,0.038 -4.916,0.6609406 -6,1.3808594 -1.085,0.7208841 -3.87066,1.9125531 -6.1875,2.6484371 -2.319,0.736 -5.21194,2.39557 -6.42578,3.689454 -1.215,1.292768 -2.62216,2.351562 -3.125,2.351562 -0.505,0 -2.70463,1.530507 -4.89063,3.400391 -4.766,4.079536 -6.10012,4.314575 -31.55664,5.527343 -10.56584,0.504 -21.592,1.399188 -24.5,1.992188 -3.793,0.772884 -6.84211,0.769272 -10.78711,-0.01172 -43.582896,-8.627956 -65.507457,8.699923 -67.662109,53.470703 -0.396,8.233072 -0.880482,10.521817 -2.90625,13.730469 C 48.094757,98.22616 47.152104,100.25493 47,100.52734 c -1.243627,2.2275 -14.404384,20.49865 -21.304688,28.27149 -1.421768,1.601 -3.18401,3.88031 -4.384765,7.37305 -1.32613,2.49659 -2.178819,5.78876 -3.095703,9.82812 -0.690006,5.64821 -2.764101,11.68571 -3.833985,28.93555 -0.547884,8.83284 0.08379,13.69061 2.550782,19.56445 0.461884,1.1 1.419953,4.025 2.126953,6.5 1.919768,6.72084 13.576698,29.81616 17.240234,34.16016 5.778304,6.84984 8.384429,10.30284 9.695313,12.83984 1.519768,2.942 9.977991,11 11.546875,11 0.596884,0 2.406716,1.38036 4.021484,3.06836 3.366652,3.519 7.41308,5.56044 12.4375,6.27344 1.924768,0.273 6.200348,1.29262 9.5,2.26562 5.06042,1.493 10.515394,1.7946 34.84961,1.9336 18.73568,0.107 29.078,0.52807 29.5,1.20507 3.08332,0.13327 6.19569,-0.37791 11.14453,-0.0605 4.95,0.312 14.09422,0.15672 16.44922,0.51172 2.728,0.411 4.57043,0.32919 7.67578,0.26171 8.89246,-0.0394 3.26121,-0.0221 6.88086,-0.12109 24.31368,-0.516 46.51515,-9.63252 67.67383,-29.7832 4.04184,-3.85 8.24928,-10.07969 9.82422,-12.55469 1.49198,-2.34464 3.22306,-4.46936 4.76562,-9.32812 1.52382,-5.92418 3.73372,-65.83469 1.83203,-71.47852 -2.24009,-5.51368 -3.34033,-9.66572 -4.0957,-11.66797 -0.61562,-1.63181 -0.71006,-1.64517 -1.33398,-3.57617 -0.17781,-0.55033 -0.70191,-1.62736 -1.00391,-3.69336 -1.554,-10.65584 -2.62875,-15.62289 -3.59375,-16.58789 -1.651,-1.651 -1.27614,-4.87247 1.13086,-9.73047 7.21684,-14.56438 5.1447,-60.542895 -3.49414,-77.544923 C 254.97433,15.143154 239.84906,5.6370559 227.48438,5.515625 Z M 224.50391,26.34375 C 233.19154,26.626312 244,32.184993 244,38.154297 c 0,1.029884 0.394,2.654491 0.875,3.609375 4.24,8.413956 5.91614,43.981497 2.49414,52.939453 -3.937,10.308835 -19.80977,-2.530127 -41.43945,-33.519531 -6.802,-9.744956 -10.49261,-22.156051 -7.34961,-24.720703 3.53984,-2.890652 12.82242,-7.457516 15.19726,-7.478516 0.948,-0.009 2.39766,-0.451491 3.22266,-0.984375 1.94675,-1.257884 4.60764,-1.750437 7.50391,-1.65625 z m -128.31641,21.25 c 1.292634,-0.06762 2.278147,-0.05948 2.644531,0.04102 0.732,0.20044 2.231029,0.36523 3.332029,0.36523 2.662,0 1.82105,2.294538 -1.09179,2.982422 C 97.17027,51.903306 76,70.201576 76,72.652344 76,73.393228 75.497812,74 74.882812,74 c -0.692884,0 -0.857546,-0.854116 -0.435546,-2.25 0.373884,-1.236884 0.909453,-4.275232 1.189453,-6.75 0.521884,-4.60942 2.053435,-8.725232 3.908203,-10.5 5.22142,-4.99642 6.729877,-5.801188 12.154297,-6.492188 1.595268,-0.202884 3.195647,-0.346437 4.488281,-0.414062 z m 69.37109,5.591797 c 1.49781,0.05995 3.02251,0.221172 4.72266,0.529297 4.04187,0.737978 5.13407,0.818753 6.89063,1.285156 2.40835,0.639659 3.17834,0.705939 5.40234,5.568359 2.115,4.622536 8.59939,14.221377 12.90039,19.091797 0.564,0.638 3.489,4.463464 6.5,8.5 10.92084,14.637834 25.55738,26.846364 36.19922,30.193364 5.62384,1.76884 6.19015,5.36995 7.82617,12.0957 0.68406,2.81268 2.91412,7.38957 4.39844,14.11328 0.44,1.16218 0.89228,3.5125 1.61328,5.4375 2.425,6.48084 3.87247,44.11416 2.23047,58 -2.379,20.13068 -23.48167,38.45666 -50.74219,44.0625 -2.2,0.452 -6.25,1.40539 -9,2.11523 -5.20784,1.347 -28.74032,1.4995 -48,0.3125 -9.53184,-0.588 -10.163,-0.77001 -13.5,-3.88085 C 129.598,247.43538 119.46016,240 118.53516,240 c -0.253,0 -3.29005,-2.04116 -6.74805,-4.53516 -3.459,-2.49284 -7.86211,-5.59848 -9.78711,-6.89648 -10.677724,-7.20484 -14.237782,-14.55527 -7.058594,-14.57227 0.857884,-0.002 3.133826,-0.96562 5.058594,-2.14062 1.925,-1.176 7.1,-3.9728 11.5,-6.2168 32.27952,-16.46468 42.79435,-40.38672 21.63867,-49.22656 -8.28384,-3.462 -26.14624,2.45914 -36.080076,11.95898 -1.957768,1.871 -5.358826,3.9663 -7.558594,4.6543 -2.199768,0.689 -4.900116,1.588 -6,2 -13.699376,5.12 -21.855272,4.57045 -22.660156,-1.52539 -0.364,-2.75 -0.814,-5.9 -1,-7 -0.283,-1.667 1.829916,-3.08316 12.68164,-8.5 28.241526,-14.09884 36.763766,-33.39774 21.080078,-47.73242 -5.711304,-5.221 -7.556635,-5.9298 -18.443359,-7.0918 -7.060188,-0.753 -6.904159,-1.35789 1.841797,-7.177733 1.924768,-1.280884 7.55058,-6.226699 12.5,-10.990235 9.92384,-9.54884 15.4431,-13.616276 23.58594,-17.382812 6.34284,-2.933652 19.98145,-7.075794 22.05078,-7.625 0.99389,-0.263838 3.17697,-1.07649 5.92578,-2.195312 2.70484,-1.119938 6.9125,-2.273241 9.9375,-2.955079 2.97901,-0.671355 7.34911,-1.353824 10,-1.589843 1.59073,-0.09294 3.06194,-0.134172 4.55859,-0.07422 z m -14.19336,21.9375 c -1.77158,-0.01794 -4.51084,0.74496 -8.14843,2.277344 -6.407,2.697652 -13.57085,8.849189 -15.83985,13.599609 -0.919,1.924768 -2.05443,4.281444 -2.52343,5.236328 -5.275,10.738842 2.1658,19.267512 17.64648,20.228512 6.04884,0.376 12.4753,1.13832 14.2793,1.69532 2.26784,0.702 4.24239,0.68403 6.40039,-0.0723 1.716,-0.598 4.37992,-1.08789 5.91992,-1.08789 7.72084,0 15.83589,-15.33366 11.21289,-21.1875 -0.571,-0.721884 -1.30953,-2.463257 -1.64453,-3.869141 C 177.25197,85.994355 164.88122,77 158.10938,77 155.91438,77 153.84,76.549884 153.5,76 c -0.35475,-0.574009 -1.07113,-0.866189 -2.13477,-0.876953 z m 2.0293,16.099609 c 0.97075,-0.0094 1.83541,0.393929 3.75391,1.195313 8.06184,3.368536 10.0004,10.148701 2.85156,9.970701 -18.42868,-0.457 -23.80984,-5.299109 -11,-9.894529 2.3465,-0.842 3.42378,-1.26211 4.39453,-1.271485 z M 74.28125,123.75391 c 2.88564,-0.094 5.295469,0.15642 6.011719,0.87304 1.807768,1.807 -8.333136,14.15039 -11.763672,14.15039 C 67.781413,138.77734 65.155768,138.9 63,140 c -2.155768,1.1 -4.09285,2 -4.302734,2 -2.261768,0 0.149082,-13.30856 2.802734,-15.47656 1.836018,-1.5 7.971849,-2.61294 12.78125,-2.76953 z m 120.05664,38.59375 c -2.4128,-0.12855 -4.99508,0.73555 -7.14258,2.95117 -4.35384,4.49184 -4.24784,7.97414 0.375,12.33398 5.57,5.253 10.2466,3.93975 13.8086,-3.87109 2.75572,-6.04793 -1.73285,-11.13126 -7.04102,-11.41406 z m -157.435546,0.44336 h 0.002 v 0.002 0.002 0.002 0.002 0.002 0.002 0.002 0.002 0.002 0.0117 0.0117 0.006 0.0117 0.006 0.0117 l 0.002,0.006 v 0.0117 0.004 0.004 0.0117 0.0117 0.0117 0.0117 0.004 0.0117 c 1.521954,0.12196 2.930078,5.78025 3.017578,12.85156 0.042,3.40424 0.798825,6.2245 1.076172,6.80859 0.456719,0.96181 0.636422,1.54414 1,2.53125 1.305814,3.54561 5.087317,13.46969 8.792969,17.04493 2.038768,1.96786 5.282263,5.35834 7.207031,7.5332 1.924768,2.17532 4.420038,4.61494 5.544922,5.42187 1.124884,0.80694 3.375116,3.26418 5,5.45704 1.624768,2.19386 4.176085,5.3441 5.667969,7 1.491768,1.6569 4.360279,5.03303 6.373047,7.5039 2.013652,2.47087 5.742341,5.90973 8.287109,7.64063 11.869839,8.07397 11.160989,12.2989 -1.339844,7.9707 -2.219037,-0.81356 -6.058435,-1.98939 -8.533203,-2.65234 -5.07076,-1.3588 -9.776554,-3.39249 -12.974609,-5.34375 0.0095,0.0167 0.01787,0.034 0.02734,0.0508 0.04882,0.0853 0.02445,0.0442 0.07227,0.12695 0.01643,0.0285 0.02212,0.0538 0.01953,0.0742 v 0.004 c 0.05749,0.0552 0.116705,0.10865 0.171875,0.16601 0.03527,0.0391 0.07454,0.0763 0.105469,0.11914 0.02001,0.0276 0.02131,0.0286 0.03711,0.0586 0.0154,0.0357 0.02612,0.0742 0.02539,0.11328 0.0046,-1e-5 0.0026,0 0.0078,0 0.06574,-2e-4 0.06574,0.0662 0,0.0664 -0.01648,3e-5 -0.0151,0 -0.02539,0 -0.0058,0.009 -0.0117,0.0201 -0.01758,0.0293 -0.01166,0.004 -0.02356,0.007 -0.03516,0.0117 v 0.002 c 2.42e-4,0.005 -0.0021,0.008 -0.0039,0.0117 0.0065,0.002 0.01302,0.003 0.01953,0.004 0.07446,0.003 0.03696,-0.001 0.109374,0.006 0.120057,0.007 0.108951,0.11022 0.0098,0.12304 0.0058,9.9e-4 0.01406,0.008 0.0293,0.0117 0.04627,0.0129 0.01274,0.0343 -0.01367,0.0469 v 0.002 c 0.01842,0.007 -0.01028,0.0103 -0.0098,0.0215 0.0024,7.8e-4 0.0054,0.004 0.0078,0.006 0.06258,0.0201 0.04109,0.0827 -0.02148,0.0625 -0.01304,-0.005 -0.0261,-0.01 -0.03906,-0.0137 -0.01938,-0.007 -0.03098,-0.0164 -0.03516,-0.0273 -0.0281,-0.006 -0.05634,-0.0109 -0.08398,-0.0176 -0.03027,-0.007 -0.0422,-0.0255 -0.03906,-0.041 -0.02208,-0.008 -0.04491,-0.014 -0.06641,-0.0234 -0.01458,-0.006 -0.02448,-0.0148 -0.0293,-0.0234 -0.0176,-7.6e-4 -0.03517,-0.002 -0.05273,-0.004 -0.04056,-0.005 -0.005,-0.0283 -0.002,-0.0449 -0.0026,7e-5 -0.0053,2.5e-4 -0.0078,0 -0.0031,0 -0.0047,-9.5e-4 -0.0078,-0.002 -0.01471,-0.004 -0.02884,-0.008 -0.04297,-0.0137 -0.017,-0.008 -0.03197,-0.0174 -0.04492,-0.0312 -0.0013,-0.001 -0.0026,-0.003 -0.0039,-0.004 h -0.05078 c -0.01644,0 0.0043,-0.0113 -0.0039,-0.0176 -0.0258,-0.002 -0.04138,-0.0129 -0.04687,-0.0254 -0.01433,-0.002 -0.02877,-0.004 -0.04297,-0.008 -0.02776,-0.008 -0.05628,-0.02 -0.08203,-0.0332 -0.01763,-0.0113 -0.03672,-0.0194 -0.05273,-0.0332 -0.0032,-0.003 -0.0048,-0.007 -0.0078,-0.01 -0.03828,-0.006 -0.05827,-0.0237 -0.06641,-0.0449 -0.0032,-7.7e-4 -0.0066,-0.001 -0.0098,-0.002 -0.002,-4.6e-4 -0.0039,-0.001 -0.0059,-0.002 -0.0026,-5.9e-4 -0.0052,-0.001 -0.0078,-0.002 -0.0208,-0.005 -0.03456,-0.0144 -0.04102,-0.0254 -1.5e-5,-7.9e-4 -0.002,-0.001 -0.002,-0.002 -0.0021,-1.4e-4 -0.0037,3e-4 -0.0059,0 -0.0042,0 -0.0076,-0.003 -0.01172,-0.004 -0.02105,-0.008 -0.042,-0.0204 -0.06055,-0.0332 -0.01582,-0.0138 -0.0202,-0.0233 -0.01563,-0.0371 -0.02463,-0.001 -0.04926,-0.006 -0.07227,-0.0137 -0.02628,-0.0109 -0.05334,-0.0231 -0.07813,-0.0371 -0.02319,-0.0131 -0.04546,-0.0274 -0.06836,-0.041 -0.01359,-0.008 -0.02895,-0.0135 -0.04297,-0.0215 v -0.004 c -0.01799,-0.01 -0.02671,-0.0217 -0.0293,-0.0332 -0.01185,-0.003 -0.02372,-0.005 -0.03516,-0.01 -0.0058,-0.003 -0.01178,-0.007 -0.01758,-0.01 -0.0032,-0.001 -0.0067,-6.2e-4 -0.0098,-0.002 -0.02287,-0.01 -0.04497,-0.0225 -0.06641,-0.0352 -0.02844,-0.016 -0.05506,-0.0346 -0.08203,-0.0527 -0.01325,-0.005 -0.02596,-0.01 -0.03906,-0.0156 -0.006,-0.002 -0.01174,-0.005 -0.01758,-0.008 -0.0013,-10e-6 -0.0026,3e-5 -0.0039,0 v -0.002 c -0.01243,-0.006 -0.02483,-0.0112 -0.03711,-0.0176 -0.01265,-0.006 -0.0072,-0.005 -0.01953,-0.0117 -0.01435,-0.008 -0.0233,-0.0178 -0.02734,-0.0273 v -0.002 c -0.02513,-0.0118 -0.05051,-0.0229 -0.07617,-0.0351 -0.02984,-0.0131 -0.05934,-0.0292 -0.08789,-0.0449 -0.03045,-0.0179 -0.06123,-0.0351 -0.0918,-0.0527 -0.0514,-0.029 -0.101804,-0.0593 -0.152344,-0.0898 -0.05449,-0.0333 -0.108569,-0.0631 -0.162109,-0.0977 -0.06561,-0.0426 -0.1297,-0.0894 -0.19336,-0.13477 -0.05405,-0.0385 -0.107523,-0.0763 -0.158203,-0.11914 -0.0025,-0.002 -0.0035,-0.01 -0.0059,-0.0117 -0.01339,-0.009 -0.02779,-0.0164 -0.04102,-0.0254 -0.03456,-0.0238 -0.06952,-0.0477 -0.103515,-0.0723 -0.03034,-0.0214 -0.05985,-0.0429 -0.08984,-0.0645 -0.02931,-0.0216 -0.05721,-0.044 -0.08594,-0.0664 -0.02376,-0.0185 -0.04707,-0.0395 -0.07031,-0.0586 -0.02431,-0.019 -0.0492,-0.0361 -0.07227,-0.0566 -0.03484,-0.0291 -0.07006,-0.0572 -0.103515,-0.0879 -0.05056,-0.0466 -0.100448,-0.0933 -0.148438,-0.14257 -0.04642,-0.0474 -0.09305,-0.0964 -0.140625,-0.14258 -0.02811,-0.0257 -0.056,-0.0486 -0.08594,-0.0723 v -0.0117 c -0.02064,-0.0163 -0.02562,-0.0358 -0.02148,-0.0488 -0.08793,-0.0309 -0.171643,-0.0351 -0.267578,-0.13477 -0.16696,-0.17378 -0.326335,-0.35459 -0.490234,-0.53125 -0.127684,0.006 -0.284625,-0.0496 -0.445313,-0.19531 -0.04623,-0.042 -0.09439,-0.0831 -0.140625,-0.125 -0.232322,-0.21264 -0.465864,-0.42466 -0.683594,-0.65235 -0.14054,0.0773 -0.338931,0.0566 -0.550781,-0.18945 -0.09678,-0.11237 -0.190582,-0.22744 -0.277343,-0.34765 -0.235064,-0.30966 -0.456276,-0.63057 -0.681641,-0.94727 -0.277202,-0.39631 -0.561325,-0.78812 -0.863281,-1.16602 -0.358816,-0.45374 -0.719289,-0.90612 -1.076172,-1.36132 -0.263409,-0.34857 -0.528113,-0.69996 -0.738282,-1.08399 -0.138183,-0.25262 -0.123111,-0.45174 -0.03125,-0.56445 -7.59e-4,-9.9e-4 -0.0011,-0.003 -0.002,-0.004 -0.009,-0.01 -0.01831,-0.0195 -0.02734,-0.0293 -0.02085,0.10286 -0.154033,0.14187 -0.263672,-0.0117 -0.03401,-0.045 -0.06755,-0.0879 -0.101563,-0.13282 -0.03463,-0.0494 -0.06974,-0.0984 -0.103515,-0.14843 -0.110633,-0.1637 -0.212441,-0.33335 -0.308594,-0.50586 -0.01584,-0.0244 -0.03328,-0.0496 -0.04883,-0.0742 -0.0018,-0.002 -0.004,-0.01 -0.0059,-0.0117 -0.183506,-0.17299 -0.34531,-0.36564 -0.492187,-0.57031 -0.103867,-0.14802 -0.189993,-0.30775 -0.267578,-0.47071 -0.06359,-0.099 -0.123319,-0.20039 -0.177735,-0.30468 -0.105812,-0.20285 -0.116819,-0.36507 -0.07031,-0.47461 -0.01809,-0.0685 -0.03542,-0.13718 -0.05469,-0.20508 -0.01119,-0.0334 -0.01993,-0.0676 -0.0293,-0.10156 -0.06284,-0.0361 -0.112181,-0.0945 -0.136719,-0.16211 -0.0076,-0.0209 -0.01073,-0.0447 -0.01563,-0.0664 -0.001,-0.0208 -0.0024,-0.0719 0,-0.11328 -0.06592,-0.016 -0.132636,-0.0494 -0.19336,-0.0879 -0.184505,-0.1164 -0.361901,-0.24804 -0.509765,-0.41016 -0.08745,-0.10305 -0.118433,-0.13339 -0.195313,-0.24804 -0.133456,-0.19907 -0.22938,-0.4206 -0.3125,-0.64454 -0.105906,-0.30006 -0.204975,-0.60165 -0.296875,-0.90625 0.0065,-0.0527 -0.01734,-0.12651 0,-0.17187 -0.05009,-0.0185 -0.09895,-0.0374 -0.146484,-0.0625 -0.01832,-0.01 -0.03838,-0.0171 -0.05469,-0.0293 -0.02942,-0.0231 -0.05471,-0.0526 -0.08203,-0.0781 0.05074,-0.0744 0.0928,-0.15496 0.146484,-0.22656 -3.054453,-1.4651 -8.556601,-9.83937 -10.33789,-19.01172 -0.01572,0.007 -0.03868,-0.006 -0.05078,-0.0371 -0.009,-0.0234 -0.01903,-0.0474 -0.0293,-0.0703 -0.0068,-0.0136 -0.01374,-0.0274 -0.02344,-0.0391 -0.02621,-0.0316 -0.02366,-0.0635 -0.0039,-0.0703 h 0.002 c -0.001,-0.004 -0.0028,-0.008 -0.0039,-0.0117 -0.0057,-0.0235 -0.01239,-0.0459 -0.02148,-0.0684 -0.01716,-0.04 -0.03747,-0.0791 -0.05469,-0.11914 -0.02346,-0.0547 -0.04641,-0.10876 -0.06836,-0.16406 -0.02889,-0.0726 -0.05698,-0.14511 -0.08789,-0.2168 -0.03909,-0.0896 -0.07863,-0.17949 -0.121094,-0.26758 -0.01429,-0.0293 -0.02616,-0.0569 -0.04102,-0.0859 -0.0219,-0.0427 -0.04516,-0.0859 -0.06641,-0.12891 -0.02553,-0.052 -0.04997,-0.10277 -0.07227,-0.15625 -0.01711,-0.0406 -0.03417,-0.0831 -0.05273,-0.12305 -0.01422,-0.0307 -0.02912,-0.0579 -0.04492,-0.0879 -0.01792,-0.034 -0.0038,-0.0587 0.01562,-0.0625 -0.02246,-0.0445 -0.04473,-0.0894 -0.06055,-0.13672 -0.0063,-0.0188 0.0044,-0.0266 0.0098,-0.0371 -0.0154,-0.0255 -0.03187,-0.0504 -0.04687,-0.0762 -0.02641,-0.046 -0.05188,-0.0935 -0.07227,-0.14258 v -0.006 c -0.0091,-0.0165 -0.01766,-0.0353 -0.02539,-0.0527 -0.01557,-0.034 -0.03151,-0.0683 -0.03711,-0.10547 -0.0024,-0.016 0.0069,-0.0188 0.01172,-0.0273 -0.0023,-0.006 -0.0041,-0.0117 -0.0059,-0.0176 -0.01069,-0.004 -0.02128,-0.0121 -0.0293,-0.0293 -0.0038,-0.008 -0.0063,-0.0164 -0.0098,-0.0254 -0.0086,-0.0211 -0.01814,-0.0416 -0.02734,-0.0625 -0.0025,-0.006 -0.0052,-0.0137 -0.0078,-0.0195 -0.0014,-0.003 -0.0025,-0.007 -0.0039,-0.01 -0.01248,-0.0233 -0.02616,-0.0461 -0.03711,-0.0703 -0.01609,-0.036 -0.0324,-0.072 -0.04492,-0.10937 -0.0023,-0.007 0.0043,-0.006 0.0039,-0.0117 v -0.006 c -0.02134,-0.0515 -0.04198,-0.1024 -0.0625,-0.1543 -0.007,-0.0183 -0.01468,-0.0363 -0.02148,-0.0547 -8.5e-4,-0.002 -0.0012,-0.01 -0.002,-0.0117 v -0.002 c -3.91e-4,-9.9e-4 -0.0015,-0.0107 -0.002,-0.0117 v -0.002 c -4.14e-4,-9.7e-4 -0.0017,-0.007 -0.0039,-0.0117 -0.0074,-0.0174 -0.01418,-0.0333 -0.02148,-0.0508 -0.01117,-0.0253 -0.0223,-0.0526 -0.0332,-0.0781 -0.0042,-0.0103 -0.0075,-0.0197 -0.01172,-0.0293 -0.01008,-0.0248 -0.02095,-0.0493 -0.03125,-0.0742 -0.01829,-0.0439 -0.03618,-0.0882 -0.05273,-0.13281 -0.0081,-0.0223 -0.01193,-0.0285 -0.01953,-0.0508 -0.0047,-0.0139 -0.0062,-0.0305 -0.0098,-0.0449 -0.01127,-0.004 -0.02358,-0.0142 -0.03125,-0.0332 -0.0057,-0.0143 -0.01188,-0.0287 -0.01758,-0.043 -0.0056,-0.0147 -0.01029,-0.0299 -0.01563,-0.0449 -0.0082,0.002 -0.01709,0.0107 -0.02539,0.0117 -0.01233,9.9e-4 -0.02244,-0.01 -0.0332,-0.0156 -0.03202,-0.0183 -0.05503,-0.0486 -0.07813,-0.0762 -0.04079,-0.0498 -0.07719,-0.10241 -0.109375,-0.1582 -0.04576,-0.0792 -0.08682,-0.16014 -0.123047,-0.24414 -0.04928,-0.1109 -0.09536,-0.22379 -0.136719,-0.33789 -0.03977,-0.11226 -0.08003,-0.22348 -0.113281,-0.33789 -0.0363,-0.11904 -0.07341,-0.23826 -0.109375,-0.35742 -0.03489,-0.1126 -0.06624,-0.22682 -0.09961,-0.33985 -0.03969,-0.14032 -0.08165,-0.27956 -0.121094,-0.41992 -0.03306,-0.11531 -0.06792,-0.23055 -0.101563,-0.3457 -0.0094,-0.0181 -0.01803,-0.0366 -0.02734,-0.0547 -0.03973,-0.0795 -0.07556,-0.1618 -0.113282,-0.24219 -0.03941,-0.0794 -0.07738,-0.1581 -0.115234,-0.23828 -0.03616,-0.0754 -0.06901,-0.15231 -0.103516,-0.22851 -0.02608,-0.0578 -0.05203,-0.11604 -0.07813,-0.17383 -0.01387,-0.0323 -0.02708,-0.0673 -0.04102,-0.0996 -0.01162,-0.0269 -0.01685,-0.0527 -0.01758,-0.0742 -0.0054,-0.008 -0.01279,-7.4e-4 -0.01758,-0.0117 -0.01283,-0.0272 -0.02639,-0.0578 -0.03711,-0.0859 -0.01324,-0.0378 -0.02389,-0.0748 -0.03516,-0.11328 -0.01294,-0.0435 -0.02208,-0.0868 -0.0332,-0.13086 -0.0131,-0.0539 -0.0249,-0.10852 -0.03906,-0.16211 -0.0088,-0.0397 -0.02014,-0.0804 -0.03125,-0.11914 -0.02427,-0.0167 -0.04647,-0.0466 -0.06055,-0.0918 -0.0077,-0.0249 -0.0027,-0.0101 -0.0098,-0.0332 -0.01447,-0.0423 -0.02993,-0.0845 -0.04883,-0.125 -0.02848,-0.0596 -0.05927,-0.11842 -0.08398,-0.17969 -0.02302,-0.057 -0.04684,-0.11312 -0.07031,-0.16992 -0.0173,-0.0423 -0.03666,-0.0868 -0.05469,-0.1289 -0.01727,-0.0395 -0.0352,-0.0759 -0.05273,-0.11524 -0.0221,-0.0499 -0.04063,-0.10155 -0.06055,-0.15234 -0.02317,-0.0624 -0.0445,-0.12537 -0.0625,-0.18945 -0.02595,-0.0831 -0.05188,-0.16642 -0.07617,-0.25 -0.01982,-0.0677 -0.04444,-0.13691 -0.05273,-0.20704 -10e-4,-0.009 -0.0018,-0.0213 -0.002,-0.0293 -0.02659,-0.0655 -0.05586,-0.12857 -0.08398,-0.19336 -0.02172,-0.0485 -0.04358,-0.0956 -0.06445,-0.14453 -0.01752,-0.041 -0.02103,-0.0768 -0.01563,-0.10547 -0.0053,-0.0111 -0.01,-0.0224 -0.01563,-0.0332 -0.02141,-0.0402 -0.04224,-0.0805 -0.05859,-0.12305 -0.01288,-0.0294 -0.024,-0.0578 -0.03516,-0.0879 -0.01982,-0.0534 -0.01883,-0.0968 -0.0039,-0.12696 -0.02798,-0.0571 -0.05734,-0.11346 -0.08203,-0.17187 -0.04555,-0.11244 -0.09243,-0.22476 -0.125,-0.3418 -0.03578,-0.12923 -0.07099,-0.26053 -0.103516,-0.39062 -0.02739,-0.11254 -0.05796,-0.22218 -0.08789,-0.33399 -0.02122,0.01 -0.0464,-0.01 -0.04102,-0.0527 0.0017,-0.0137 -10e-4,-0.0259 -0.0039,-0.0391 -0.0045,-0.0169 -0.01008,-0.033 -0.01758,-0.0488 -0.0071,-0.0152 -0.01554,-0.0282 -0.02344,-0.043 -0.0067,-0.013 -0.01303,-0.028 -0.01953,-0.041 -0.0064,-0.0131 -0.01333,-0.0278 -0.01953,-0.041 -0.0073,-0.0164 -0.01238,-0.0298 -0.01758,-0.0469 -0.0062,-0.0222 -0.01152,-0.0477 -0.01563,-0.0703 -0.0035,-0.0182 -0.0067,-0.0365 -0.0098,-0.0547 -0.0033,-0.0159 -0.0061,-0.0327 -0.0078,-0.0488 -0.0013,-0.0151 10e-4,-0.0317 -0.002,-0.0469 -8e-4,-0.0189 -0.0052,-0.0365 -0.0098,-0.0547 -0.0044,-0.0188 -0.0098,-0.038 -0.01563,-0.0566 l -0.002,-0.002 c -0.0156,-0.0266 -0.03008,-0.0553 -0.04102,-0.084 -0.01233,-0.0317 -0.02456,-0.0634 -0.03516,-0.0957 -0.0061,-0.0185 -0.0056,-0.0347 0,-0.0449 -0.0068,-0.0199 -0.01253,-0.0381 -0.01758,-0.0586 v -0.006 c -8.11e-4,-9.9e-4 -0.0012,-0.01 -0.002,-0.0117 -0.0022,-0.005 -0.0043,-0.008 -0.0059,-0.0137 -0.01013,-0.04 -0.02509,-0.0784 -0.03906,-0.11719 -0.01703,-0.051 -0.0091,-0.0248 -0.02539,-0.0762 -0.004,-0.0127 -0.0054,-0.024 -0.0039,-0.0332 -0.0043,-0.009 -0.0079,-0.018 -0.01172,-0.0273 -0.0086,-0.0184 -0.01448,-0.0359 -0.02148,-0.0547 -0.0068,-0.0205 -0.01538,-0.0417 -0.02148,-0.0625 -0.0066,-0.0222 -0.01243,-0.0444 -0.01953,-0.0664 -0.0077,-0.0191 -0.01263,-0.0354 -0.01953,-0.0547 -0.0072,-0.02 -0.01433,-0.0401 -0.01953,-0.0606 -0.0052,-0.0236 -0.01053,-0.0505 -0.01563,-0.0742 -0.0051,-0.024 -0.0093,-0.0501 -0.01367,-0.0742 -0.0017,-0.0112 -0.0039,-0.0209 -0.0059,-0.0312 -0.0082,-0.008 -0.01541,-0.0223 -0.01758,-0.041 -1.41e-4,-0.001 1.86e-4,-0.009 0,-0.01 h -0.002 c -0.0035,-0.004 -0.0065,-0.0109 -0.0098,-0.0156 -0.0092,-0.0144 -0.01789,-0.0315 -0.02539,-0.0469 -0.0091,-0.0207 -0.01829,-0.041 -0.02539,-0.0625 -0.0053,-0.0178 -0.0073,-0.0386 -0.01172,-0.0566 -0.0046,-0.0169 -0.0076,-0.0338 -0.01172,-0.0508 -0.0041,-0.0155 -0.0083,-0.0331 -0.01172,-0.0488 -0.0032,-0.0134 -0.0069,-0.0256 -0.0098,-0.0391 -0.0038,-0.0161 -0.0069,-0.0325 -0.0098,-0.0488 -2.49e-4,-9.6e-4 2.11e-4,-0.003 0,-0.004 -8.12e-4,-9.4e-4 -0.0012,-0.01 -0.002,-0.0117 -0.0015,-0.003 -0.0027,-0.008 -0.0039,-0.0117 -0.0015,-0.005 -0.0025,-0.009 -0.0039,-0.0137 -0.01019,-0.0361 -0.0205,-0.0709 -0.0293,-0.10743 -0.0053,-0.0234 -0.01088,-0.05 -0.01367,-0.0742 v -0.002 c -0.0057,-0.0163 -0.01228,-0.0322 -0.01758,-0.0488 -0.0089,-0.0279 -0.01679,-0.056 -0.02539,-0.084 -0.0044,-0.0145 -0.0026,-0.0257 0,-0.0352 -0.0054,-0.0159 -0.01176,-0.0302 -0.01367,-0.0469 v -0.0117 c -0.0011,-0.002 -0.0024,-0.008 -0.0039,-0.0117 -0.0054,-0.0172 -0.01,-0.0328 -0.01172,-0.0508 -9.79e-4,-0.003 -0.0031,-0.007 -0.0039,-0.01 -0.0061,-0.0207 -0.01323,-0.0418 -0.01953,-0.0625 -0.01001,-0.0349 -0.02084,-0.0691 -0.02344,-0.10546 -0.0011,-0.0154 0.0013,-0.0288 0.0059,-0.0371 -0.0043,-0.0109 -0.0079,-0.0222 -0.01172,-0.0332 -0.01356,-0.0396 -0.0274,-0.0789 -0.03906,-0.11914 -0.007,-0.0235 -0.01393,-0.0465 -0.01953,-0.0703 -0.0024,-0.0139 -0.0043,-0.027 -0.0059,-0.041 -0.0025,-0.0214 0.0017,-0.0355 0.0098,-0.043 -0.02672,-0.0778 -0.05481,-0.15539 -0.07031,-0.23633 -0.02409,-0.10603 -0.03609,-0.21419 -0.04687,-0.32227 -0.01246,-0.004 -0.02451,-0.0178 -0.0293,-0.041 -0.0022,-0.0108 -0.0046,-0.0189 -0.0059,-0.0293 -0.0029,-0.0201 -0.0062,-0.0421 -0.0078,-0.0625 -4.5e-4,-0.003 -0.0014,-0.008 -0.002,-0.0117 v -0.0117 c -0.007,-0.008 -0.01879,10e-4 -0.01953,-0.0176 -8.21e-4,-0.0193 -2.35e-4,-0.0378 0,-0.0566 4e-6,-0.003 4e-6,-0.009 0,-0.0117 -0.0036,-0.0117 -0.0084,-0.025 -0.01172,-0.0371 -7.12e-4,-0.003 -0.0033,-0.008 -0.0039,-0.0117 v -0.006 -0.006 c -0.0039,-0.0154 -0.0076,-0.0332 -0.0098,-0.0488 -0.0047,-0.0306 -0.0086,-0.0613 -0.01367,-0.0918 -0.0027,-0.0161 -0.006,-0.0307 -0.0078,-0.0469 -8e-4,-0.009 -0.0023,-0.0163 -0.0039,-0.0254 -0.0014,-0.0117 -0.0042,-0.0254 -0.0059,-0.0371 -0.0012,-0.0111 -0.0027,-0.0221 -0.0039,-0.0332 v -0.0117 c -6.17e-4,-0.006 0.0035,-0.007 0.0039,-0.0117 -9.24e-4,-0.005 -0.0035,-0.009 -0.0039,-0.0137 -0.0018,-0.015 -0.0042,-0.0298 -0.0039,-0.0449 V 193 c 0,-0.0287 0.01304,-0.0433 0.02734,-0.0469 0.01839,-0.005 0.03906,0.01 0.03906,0.0469 v 0.0332 c -10e-5,0.0123 0.0018,0.0249 0.0039,0.0371 9.4e-5,9.9e-4 -1.58e-4,0.0107 0,0.0117 0.0021,-0.005 0.0024,-0.0117 0.0059,-0.0117 0.0014,1.5e-4 0.0025,0.01 0.0039,0.01 8.3e-4,-0.004 0.003,-0.008 0.0039,-0.0117 0.0036,-0.0166 0.0081,-0.0348 0.01367,-0.0508 0.0037,-0.0105 0.0087,-0.0178 0.01367,-0.0234 0.0023,-0.1388 0.0046,-0.2773 0.01367,-0.41602 0.0092,-0.13902 0.06681,-0.22286 0.134766,-0.25195 -0.257021,-1.02926 -0.355816,-1.33977 -0.585937,-2.25976 -0.06846,-0.05 -0.129727,-0.1379 -0.164063,-0.27149 -0.110276,-0.42904 -0.221858,-0.85922 -0.34375,-1.28515 -0.142989,-0.51368 -0.295499,-1.02402 -0.447266,-1.53516 -0.100075,-0.31487 -0.210329,-0.62665 -0.267578,-0.95313 -0.03176,-0.16938 -0.05398,-0.33963 -0.08008,-0.50976 -1.785343,-5.39972 -0.554197,-21.05096 0.804688,-22.42188 0.218625,-0.22044 0.438795,-0.31623 0.65625,-0.29882 z m 91.113276,4.35937 c 0.2475,-0.008 0.47881,0.01 1.17188,0.004 1.14641,-0.0246 1.61745,0.0767 2.86523,1.31836 1.06575,1.05954 1.77864,2.09877 0.70508,3.51953 -0.8631,1.14224 -0.8667,1.20486 -2.75,2.85937 -2.34737,2.25523 -8.5022,8.6876 -10.16406,9.60547 -0.0449,0.0248 -0.0885,0.0439 -0.13281,0.0664 -2.34226,1.79106 -15.94299,12.16397 -18.15039,12.62695 -2.400979,0.50329 -15.548975,6.75207 -17.054691,6.94531 -1.5056,0.19324 -2.264234,0.38232 -3.791015,0.0859 -0.918125,-0.17559 -0.752824,0.0948 -2.414063,-1.08398 -1.318439,-0.9356 -2.705535,-2.21561 -3.480469,-3.07032 -0.590608,-0.65152 -4.213871,-2.77864 -2.871093,-6.03125 1.24032,-3.0033 2.010854,-3.24861 4.3125,-3.67187 3.031941,-0.55758 8.443464,-1.55516 13.576172,-3.19141 5.909067,-1.88373 10.829349,-6.29481 13.455079,-8.47656 h -0.0117 c 0,0 0.12182,-0.0936 0.14453,-0.11133 0.0464,-0.0383 0.12123,-0.10191 0.16602,-0.13867 0.0117,-0.01 0.0222,-0.0194 0.0351,-0.0293 0.006,-0.005 0.0158,-0.0129 0.0215,-0.0176 h 0.004 c 0.0158,-0.0116 0.0433,-0.0253 0.0606,-0.0371 0.45359,-0.35159 1.17553,-0.90463 1.42773,-1.0586 0.39844,-0.24219 3.1107,-1.47347 3.51563,-1.70117 0.35245,-0.19819 2.2172,-1.0981 2.85742,-1.40625 3.9692,-2.10482 8.15264,-4.30004 8.91406,-4.73633 1.40755,-0.80532 4.81388,-1.76583 6.32227,-2.06836 0.75419,-0.15127 1.01927,-0.19356 1.26562,-0.20117 z m 66.3711,16.45508 c -1.31471,0.0592 -2.71789,0.40339 -4.00977,1.05664 -4.64884,2.352 -6.78307,7.43169 -4.95507,11.80469 2.65484,6.35684 11.70092,8.3682 16.04492,3.56836 1.839,-2.032 1.36809,-14.66872 -0.50391,-13.51172 -0.462,0.285 -1.20534,-0.12988 -1.65234,-0.92188 -0.78625,-1.3975 -2.73265,-2.09478 -4.92383,-1.99609 z m -152.072267,24.12891 -0.002,0.002 c 0.0012,0.001 0.0028,-0.001 0.0059,0.002 -0.0012,-0.001 -0.0027,-0.003 -0.0039,-0.004 z m 12.494141,19.79882 c -0.0021,0.004 -0.0038,0.008 -0.0059,0.0117 0.003,-9.2e-4 0.0068,-0.002 0.0098,-0.002 -9.79e-4,-0.003 -0.0029,-0.006 -0.0039,-0.01 z m -1.837891,0.68164 c 0.009,0.007 0.01788,0.0154 0.02539,0.0137 -0.0085,-0.004 -0.01685,-0.009 -0.02539,-0.0137 z m 1.113281,0.18946 c -0.0025,8e-4 -0.0053,-0.001 -0.0078,0.002 v 0.002 c 0.0026,-0.001 0.0052,-0.002 0.0078,-0.004 z m 0.501954,0.18359 c 0.01464,0.0269 0.01908,0.0345 0.02344,0.043 h 0.002 c -0.007,-0.0119 -0.01338,-0.0225 -0.02539,-0.043 z m -0.277344,0.15039 c -0.0025,0.001 -0.0052,-0.001 -0.0078,0.002 0.0026,4.4e-4 0.0031,-4.7e-4 0.0059,0 z m 0.902344,1.125 c -0.002,4.5e-4 -0.0038,0.002 -0.0059,0.002 -0.0012,0.003 -0.0028,0.007 -0.0039,0.01 0.004,-0.004 0.0072,-0.007 0.0098,-0.0117 z m 10.761718,13.47852 -0.002,0.002 c 0.0052,-10e-6 0.01041,-0.002 0.01563,-0.002 -0.0046,-7e-5 -0.0092,-1.8e-4 -0.01367,0 z" /><path
         id="path9"
         style="fill:#000000;fill-rule:evenodd;stroke-width:1.30037"
         d="m 17.236328,183.27734 v 0.002 c 0,0 13.081237,97.78961 89.179692,90.04687 45.64878,-4.64439 36.33576,-3.9953 2.48242,-21.9707 -0.15994,0.68316 -0.36237,1.35398 -0.69922,1.97461 -0.38925,0.70136 -0.86812,1.35389 -1.5293,1.82422 -0.12993,0.086 -0.25248,0.18211 -0.38867,0.25781 -0.65136,0.36208 -1.40899,0.45948 -2.14258,0.42578 -1.08498,-0.0713 -2.17357,-0.16362 -3.23633,-0.4043 -1.543492,-0.399 -3.041883,-0.94925 -4.564449,-1.41992 -2.353685,-0.76208 -4.69139,-1.57745 -6.992188,-2.48828 -1.102555,-0.45448 -2.194034,-0.93302 -3.28125,-1.42187 -0.14945,0.44573 -0.752042,0.70707 -1.585937,0.30078 -0.0071,-0.003 -0.01444,-0.006 -0.02148,-0.01 -0.205746,0.0151 -0.445658,-0.0141 -0.714843,-0.10156 -0.361445,-0.1174 -0.724492,-0.23416 -1.085938,-0.35156 -1.394392,-0.45766 -2.793798,-0.91162 -4.160156,-1.44922 -0.277952,0.10039 -0.643382,0.1048 -1.101563,-0.11328 -1.805798,-0.85959 -3.620962,-1.70406 -5.382812,-2.65235 -2.239813,-1.23084 -4.474432,-2.51864 -6.480469,-4.10742 -0.0012,0.007 -0.01013,0.008 -0.01367,0.0137 0.02912,0.0269 0.05796,0.0542 0.08594,0.082 0.02842,0.0283 0.08186,0.0478 0.08203,0.0879 1.2e-5,0.003 2.2e-5,0.005 0,0.008 0.02253,0.0184 0.03682,0.0383 -0.0039,0.0508 -0.0011,0.009 -0.0051,0.007 -0.0078,0.01 0.02345,0.0266 0.04759,0.0527 0.07031,0.0801 0.0323,0.0389 0.06383,0.078 0.0957,0.11719 0.09678,0.12068 0.187357,0.24673 0.279297,0.37109 0.07816,0.1057 -0.02926,0.18551 -0.107422,0.0781 -0.05118,-0.0692 -0.102706,-0.13828 -0.154297,-0.20703 0.01702,0.0248 0.03582,0.0501 0.05078,0.0762 0.01294,0.0225 0.04634,0.0479 0.0332,0.0703 -0.0072,0.0123 -0.02093,0.0192 -0.0332,0.0273 0.04727,0.0856 0.09632,0.17055 0.144531,0.25585 0.04882,0.0853 0.02445,0.0442 0.07227,0.12696 0.01541,0.0267 0.02104,0.0506 0.01953,0.0703 0.0224,0.0219 0.0463,0.0423 0.06836,0.0644 0.0015,0.004 0.0096,0.003 0.0098,0.008 0.03156,0.0319 0.06271,0.0634 0.09375,0.0957 0.03527,0.0391 0.07454,0.0763 0.105469,0.11914 0.02001,0.0276 0.02131,0.0305 0.03711,0.0605 0.0154,0.0357 0.02612,0.0742 0.02539,0.11328 0.0046,-1e-5 0.0026,1e-5 0.0078,0 0.06574,-2e-4 0.06574,0.0662 0,0.0664 -0.01648,4e-5 -0.0151,0 -0.02539,0 -0.0058,0.009 -0.0117,0.0181 -0.01758,0.0273 -0.01753,0.007 -0.03472,0.0158 -0.05273,0.0195 0.0048,0.003 0.0086,0.007 0.01172,0.0117 0.0071,3.1e-4 0.01438,-2.3e-4 0.02148,0 0.07446,0.003 0.03696,-0.001 0.109374,0.006 0.120057,0.007 0.108373,0.11022 0.0098,0.12304 0.0058,0.001 0.01406,0.004 0.0293,0.008 0.05167,0.0145 0.03686,0.051 0.002,0.0566 0.0098,0.008 -0.0134,0.009 -0.01367,0.0176 0.05763,0.0214 0.03581,0.0803 -0.02539,0.0605 -0.01304,-0.005 -0.0261,-0.01 -0.03906,-0.0137 -0.01938,-0.007 -0.03098,-0.0166 -0.03516,-0.0273 -0.0281,-0.006 -0.05634,-0.0109 -0.08398,-0.0176 -0.03027,-0.007 -0.0422,-0.0255 -0.03906,-0.041 -0.02208,-0.008 -0.04491,-0.014 -0.06641,-0.0234 -0.01458,-0.006 -0.02448,-0.0148 -0.0293,-0.0234 -0.01565,-6.8e-4 -0.03126,-0.002 -0.04687,-0.004 -0.0019,-2e-5 -0.0039,-6e-5 -0.0059,0 h -0.002 c -0.0026,7e-5 -0.0053,2.5e-4 -0.0078,0 -0.0031,0 -0.0047,-9.5e-4 -0.0078,-0.002 -0.01471,-0.004 -0.02884,-0.008 -0.04297,-0.0137 -0.017,-0.008 -0.03197,-0.0174 -0.04492,-0.0312 -0.007,-0.006 -0.01394,-0.0126 -0.02344,-0.0156 -0.01153,-0.004 -0.02316,-0.005 -0.03516,-0.006 -0.0258,-0.002 -0.04138,-0.0129 -0.04687,-0.0254 -0.01433,-0.002 -0.02877,-0.004 -0.04297,-0.008 -0.02776,-0.008 -0.05628,-0.02 -0.08203,-0.0332 -0.01763,-0.0113 -0.03672,-0.0194 -0.05273,-0.0332 -0.0032,-0.003 -0.0048,-0.007 -0.0078,-0.01 -0.0027,-0.005 -0.0083,-0.009 -0.0098,-0.0137 -0.0018,-0.006 0.0018,-0.0105 0.002,-0.0156 -0.02268,-0.006 -0.04536,-0.0122 -0.06836,-0.0176 -0.002,-4.6e-4 -0.0039,-0.001 -0.0059,-0.002 -0.0026,-5.9e-4 -0.0052,-10e-4 -0.0078,-0.002 -0.0208,-0.005 -0.03456,-0.0144 -0.04102,-0.0254 -1.5e-5,-7.9e-4 -0.002,-10e-4 -0.002,-0.002 -0.0021,-1.4e-4 -0.0037,3e-4 -0.0059,0 -0.0042,0 -0.0076,-0.003 -0.01172,-0.004 -0.02105,-0.008 -0.042,-0.0204 -0.06055,-0.0332 -0.01642,-0.0143 -0.02112,-0.0245 -0.01563,-0.0391 -0.02463,-0.001 -0.04926,-0.006 -0.07227,-0.0137 -0.02628,-0.0109 -0.05334,-0.0231 -0.07813,-0.0371 -0.02319,-0.0131 -0.04546,-0.0274 -0.06836,-0.041 -0.01359,-0.008 -0.02895,-0.0135 -0.04297,-0.0215 v -0.004 c -0.01884,-0.0104 -0.02725,-0.0232 -0.0293,-0.0352 -0.01172,-0.003 -0.02381,-0.003 -0.03516,-0.008 -0.0165,-0.008 -0.03366,-0.017 -0.04883,-0.0273 -0.01116,-0.009 -0.02179,-0.0174 -0.0332,-0.0254 -0.01052,-0.007 -0.02204,-0.0135 -0.0332,-0.0195 -0.01373,-0.008 -0.02839,-0.0145 -0.04297,-0.0215 -0.01875,-0.007 -0.03792,-0.0135 -0.05664,-0.0215 -0.02002,-0.008 -0.03926,-0.0173 -0.05859,-0.0273 -0.01265,-0.006 -0.0072,-0.003 -0.01953,-0.01 -0.03228,-0.018 -0.03668,-0.0446 -0.02344,-0.0586 -0.02653,-0.0131 -0.05301,-0.026 -0.08008,-0.0391 -0.02984,-0.0131 -0.05934,-0.0292 -0.08789,-0.0449 -0.03045,-0.0179 -0.06123,-0.0351 -0.0918,-0.0527 -0.0514,-0.029 -0.101804,-0.0593 -0.152344,-0.0898 -0.05449,-0.0333 -0.108569,-0.0668 -0.162109,-0.10156 -0.06561,-0.0426 -0.1297,-0.0894 -0.19336,-0.13476 -0.05405,-0.0385 -0.107523,-0.0763 -0.158203,-0.11914 -0.0025,-0.002 -0.0035,-0.004 -0.0059,-0.006 -0.01339,-0.009 -0.02779,-0.0164 -0.04102,-0.0254 -0.03456,-0.0238 -0.06952,-0.0477 -0.103515,-0.0723 -0.03034,-0.0214 -0.05985,-0.0425 -0.08984,-0.0645 -0.01613,-0.0119 -0.03122,-0.0249 -0.04687,-0.0371 h -0.002 l -0.002,-0.002 -0.002,-0.002 c -0.0029,-0.002 -0.0068,-0.005 -0.0098,-0.008 -0.0015,-0.001 -0.0024,-0.002 -0.0039,-0.004 l -0.002,-0.002 c -0.0058,-0.005 -0.01169,-0.009 -0.01758,-0.0137 -0.02376,-0.0185 -0.04707,-0.0395 -0.07031,-0.0586 -0.02431,-0.019 -0.0492,-0.0361 -0.07227,-0.0566 -0.03484,-0.0291 -0.07006,-0.0591 -0.103515,-0.0898 -0.05056,-0.0466 -0.100448,-0.0933 -0.148438,-0.14258 -0.04642,-0.0474 -0.09305,-0.0964 -0.140625,-0.14258 -0.02811,-0.0257 -0.056,-0.0505 -0.08594,-0.0742 v -0.004 c -0.01561,-0.0123 -0.02081,-0.0257 -0.02148,-0.0371 -0.08505,-0.0312 -0.173568,-0.0815 -0.267578,-0.17969 -0.165685,-0.17246 -0.323609,-0.35209 -0.486328,-0.52734 -0.128384,0.008 -0.286894,-0.0481 -0.449219,-0.19532 -0.04623,-0.042 -0.09439,-0.0831 -0.140625,-0.125 -0.230264,-0.21077 -0.461656,-0.42106 -0.677734,-0.64648 -0.140846,0.0728 -0.348025,0.0392 -0.556641,-0.20313 -0.09678,-0.11239 -0.190603,-0.22727 -0.277343,-0.34765 -0.235064,-0.30966 -0.456276,-0.63056 -0.681641,-0.94727 -0.277202,-0.39631 -0.561346,-0.7881 -0.863281,-1.16601 -0.358816,-0.45376 -0.71931,-0.9061 -1.076172,-1.36133 -0.263409,-0.34859 -0.528113,-0.69993 -0.738282,-1.08398 -0.1408,-0.25744 -0.122036,-0.45884 -0.02539,-0.57032 -0.358716,-0.3912 -0.724574,-0.77579 -1.0625,-1.18554 -0.269147,-0.33735 -0.54191,-0.68051 -0.742188,-1.06446 -0.111459,-0.21368 -0.117747,-0.38279 -0.0625,-0.49218 -1.304022,-1.23054 -2.577413,-2.49432 -3.753906,-3.84766 -1.844721,-2.17353 -3.651356,-4.38779 -5.144531,-6.82422 -1.557653,-2.53397 -2.983345,-5.14689 -4.451172,-7.73438 -1.361228,-2.42322 -2.651595,-4.88443 -3.949219,-7.34179 -0.293542,-0.50528 -0.496406,-0.86379 -0.804687,-1.35547 -0.386891,-0.61689 -0.824327,-1.20557 -1.138672,-1.86524 -0.405857,-0.85163 -0.156059,-1.42703 0.294922,-1.54296 -6.152706,-5.43082 -12.4095,-11.26245 -18.744141,-17.63282 z m 41.802734,36.41211 c 0.03298,0.0737 0.06652,0.14706 0.09961,0.22071 0.01555,-0.036 0.02155,-0.0816 0.04102,-0.11328 -0.04672,-0.0356 -0.09389,-0.0717 -0.140626,-0.10743 z m 6.580079,4.83594 c 0.0047,0.008 0.009,0.0157 0.01367,0.0234 7.41e-4,-0.004 0.0012,-0.008 0.002,-0.0117 -0.0054,-0.004 -0.01018,-0.008 -0.01563,-0.0117 z m -1.060547,1.64649 c 0.01092,0.0229 0.02229,0.0455 0.0332,0.0684 0.04206,0.0884 0.08585,0.1758 0.128906,0.26368 8.68e-4,-0.0196 0.003,-0.0379 0.0039,-0.0566 -0.05579,-0.0915 -0.110311,-0.18483 -0.166015,-0.27539 z m 11.28125,8.5625 c -0.0014,0.011 -0.0024,0.0222 -0.0039,0.0332 0.0103,-9e-5 0.02084,-0.001 0.03125,0.002 0.01235,-0.009 0.0251,-0.0207 0.03711,-0.0293 -0.02122,-0.002 -0.04314,-0.005 -0.06445,-0.006 z m 5.175781,0.3164 c -0.03583,0.002 -0.07162,-0.001 -0.107422,0.002 0.152354,0.0775 0.315854,0.16037 0.46875,0.23829 -0.117688,-0.0756 -0.243361,-0.1642 -0.361328,-0.24024 z m -3.796875,5.78516 c -0.0024,9.2e-4 -0.0054,-0.001 -0.0078,0.002 -1.1e-4,0.002 9e-6,0.002 0,0.004 0.07397,0.0528 0.1479,0.10568 0.220703,0.16015 0.01601,0.007 0.03087,0.0165 0.04687,0.0234 -0.08662,-0.0631 -0.173861,-0.12533 -0.259766,-0.18945 z m -8.644531,0.82617 c -0.0095,6.3e-4 -0.01575,0.005 -0.02539,0.006 0.259213,0.16906 0.529489,0.32153 0.792969,0.48437 -0.256277,-0.16284 -0.512941,-0.32502 -0.767578,-0.49023 z m 21.982422,0.69141 c 0.156513,0.1538 0.31569,0.30527 0.476562,0.45507 0.339474,0.30604 0.6833,0.60712 1.025391,0.91016 0.04639,-0.007 0.09451,-0.0115 0.144531,-0.0117 0.303741,-0.002 0.669976,0.12833 1.044922,0.44336 0.530341,0.44567 0.953544,0.98024 1.298828,1.57617 0.268545,-0.23688 0.536616,-0.47437 0.808594,-0.70703 -0.717534,-0.38324 -1.441894,-0.75355 -2.154297,-1.14648 -0.883974,-0.50162 -1.763811,-1.01166 -2.644531,-1.51953 z m -24.486329,0.82812 c -0.0013,5.9e-4 -0.0025,0.002 -0.0039,0.002 0.0016,4.1e-4 0.0043,9.6e-4 0.0059,0.002 -7.82e-4,-0.001 -0.0012,-0.003 -0.002,-0.004 z m 15.791016,0.22461 c 0.03104,0.0342 0.0624,0.0676 0.09375,0.10156 0.07867,0.0626 0.161859,0.12068 0.242188,0.18164 -0.0209,-0.049 -0.04343,-0.0974 -0.06445,-0.14648 -0.09045,-0.0457 -0.180933,-0.0913 -0.271484,-0.13672 z m 1.058594,0.9707 c 0.0077,0.009 0.01373,0.0201 0.02148,0.0293 -5.6e-5,-0.009 -2.4e-4,-0.0184 0,-0.0273 -0.0072,-0.001 -0.01431,0.001 -0.02148,-0.002 z m 14.109375,1.53125 c -0.518495,0.43525 -1.031881,0.87724 -1.537109,1.32813 0.10464,0.20796 0.203925,0.41884 0.304687,0.6289 0.113086,-0.089 0.247387,-0.13792 0.390625,-0.14257 0.391184,-0.0127 0.844797,0.30411 1.078125,1.02929 0.08176,0.25411 0.09924,0.50726 0.0957,0.75977 0.01969,-0.002 0.03918,-0.005 0.05859,-0.006 0.228906,-0.008 0.437348,0.0979 0.576172,0.29102 0.115158,-0.17242 0.243706,-0.3358 0.353515,-0.51172 0.316934,-0.50776 0.697288,-0.72515 1.023438,-0.73243 0.622562,-0.0139 1.04527,0.74011 0.439453,1.70899 -0.496825,0.79457 -1.05111,1.54976 -1.605469,2.30469 -0.04228,0.0541 -0.08475,0.108 -0.126953,0.16211 1.080075,0.35544 2.157749,0.71955 3.259759,1.00195 0.95748,0.20915 1.93806,0.28776 2.91407,0.35156 0.51127,0.0333 1.00442,-0.0525 1.41211,-0.37109 0.42815,-0.31644 0.74204,-0.75411 0.98828,-1.22071 0.29249,-0.54227 0.458,-1.13179 0.58593,-1.73046 -0.002,-0.0518 0.0104,-0.19891 -0.043,-0.25391 -0.0209,-0.0215 -0.0583,0.0265 -0.0879,0.0215 -0.10739,-0.0172 -0.36294,-0.13059 -0.41211,-0.15039 -0.14771,-0.0599 -0.29443,-0.12288 -0.44336,-0.17968 -0.52611,-0.20076 -1.06482,-0.36465 -1.58789,-0.57422 -0.77528,-0.31064 -0.96084,-0.4141 -1.76368,-0.78907 -1.97914,-0.93006 -3.933035,-1.91638 -5.87304,-2.92578 z"
         inkscape:original-d="m 17.236328,183.27734 v 0.002 c 0,0 13.081237,97.78961 89.179692,90.04687 45.64878,-4.64439 36.33576,-3.9953 2.48242,-21.9707 -0.15994,0.68316 -0.36237,1.35398 -0.69922,1.97461 -0.38925,0.70136 -0.86812,1.35389 -1.5293,1.82422 -0.12993,0.086 -0.25248,0.18211 -0.38867,0.25781 -0.65136,0.36208 -1.40899,0.45948 -2.14258,0.42578 -1.08498,-0.0713 -2.17357,-0.16362 -3.23633,-0.4043 -1.543492,-0.399 -3.041883,-0.94925 -4.564449,-1.41992 -2.353685,-0.76208 -4.69139,-1.57745 -6.992188,-2.48828 -1.102555,-0.45448 -2.194034,-0.93302 -3.28125,-1.42187 -0.14945,0.44573 -0.752042,0.70707 -1.585937,0.30078 -0.0071,-0.003 -0.01444,-0.006 -0.02148,-0.01 -0.205746,0.0151 -0.445658,-0.0141 -0.714843,-0.10156 -0.361445,-0.1174 -0.724492,-0.23416 -1.085938,-0.35156 -1.394392,-0.45766 -2.793798,-0.91162 -4.160156,-1.44922 -0.277952,0.10039 -0.643382,0.1048 -1.101563,-0.11328 -1.805798,-0.85959 -3.620962,-1.70406 -5.382812,-2.65235 -2.239813,-1.23084 -4.474432,-2.51864 -6.480469,-4.10742 -0.0012,0.007 -0.01013,0.008 -0.01367,0.0137 0.02912,0.0269 0.05796,0.0542 0.08594,0.082 0.02842,0.0283 0.08186,0.0478 0.08203,0.0879 1.2e-5,0.003 2.2e-5,0.005 0,0.008 0.02253,0.0184 0.03682,0.0383 -0.0039,0.0508 -0.0011,0.009 -0.0051,0.007 -0.0078,0.01 0.02345,0.0266 0.04759,0.0527 0.07031,0.0801 0.0323,0.0389 0.06383,0.078 0.0957,0.11719 0.09678,0.12068 0.187357,0.24673 0.279297,0.37109 0.07816,0.1057 -0.02926,0.18551 -0.107422,0.0781 -0.05118,-0.0692 -0.102706,-0.13828 -0.154297,-0.20703 0.01702,0.0248 0.03582,0.0501 0.05078,0.0762 0.01294,0.0225 0.04634,0.0479 0.0332,0.0703 -0.0072,0.0123 -0.02093,0.0192 -0.0332,0.0273 0.04727,0.0856 0.09632,0.17055 0.144531,0.25585 0.04882,0.0853 0.02445,0.0442 0.07227,0.12696 0.01541,0.0267 0.02104,0.0506 0.01953,0.0703 0.0224,0.0219 0.0463,0.0423 0.06836,0.0644 0.0015,0.004 0.0096,0.003 0.0098,0.008 0.03156,0.0319 0.06271,0.0634 0.09375,0.0957 0.03527,0.0391 0.07454,0.0763 0.105469,0.11914 0.02001,0.0276 0.02131,0.0305 0.03711,0.0605 0.0154,0.0357 0.02612,0.0742 0.02539,0.11328 0.0046,-1e-5 0.0026,1e-5 0.0078,0 0.06574,-2e-4 0.06574,0.0662 0,0.0664 -0.01648,4e-5 -0.0151,0 -0.02539,0 -0.0058,0.009 -0.0117,0.0181 -0.01758,0.0273 -0.01753,0.007 -0.03472,0.0158 -0.05273,0.0195 0.0048,0.003 0.0086,0.007 0.01172,0.0117 0.0071,3.1e-4 0.01438,-2.3e-4 0.02148,0 0.07446,0.003 0.03696,-0.001 0.109374,0.006 0.120057,0.007 0.108373,0.11022 0.0098,0.12304 0.0058,0.001 0.01406,0.004 0.0293,0.008 0.05167,0.0145 0.03686,0.051 0.002,0.0566 0.0098,0.008 -0.0134,0.009 -0.01367,0.0176 0.05763,0.0214 0.03581,0.0803 -0.02539,0.0605 -0.01304,-0.005 -0.0261,-0.01 -0.03906,-0.0137 -0.01938,-0.007 -0.03098,-0.0166 -0.03516,-0.0273 -0.0281,-0.006 -0.05634,-0.0109 -0.08398,-0.0176 -0.03027,-0.007 -0.0422,-0.0255 -0.03906,-0.041 -0.02208,-0.008 -0.04491,-0.014 -0.06641,-0.0234 -0.01458,-0.006 -0.02448,-0.0148 -0.0293,-0.0234 -0.01565,-6.8e-4 -0.03126,-0.002 -0.04687,-0.004 -0.0019,-2e-5 -0.0039,-6e-5 -0.0059,0 h -0.002 c -0.0026,7e-5 -0.0053,2.5e-4 -0.0078,0 -0.0031,0 -0.0047,-9.5e-4 -0.0078,-0.002 -0.01471,-0.004 -0.02884,-0.008 -0.04297,-0.0137 -0.017,-0.008 -0.03197,-0.0174 -0.04492,-0.0312 -0.007,-0.006 -0.01394,-0.0126 -0.02344,-0.0156 -0.01153,-0.004 -0.02316,-0.005 -0.03516,-0.006 -0.0258,-0.002 -0.04138,-0.0129 -0.04687,-0.0254 -0.01433,-0.002 -0.02877,-0.004 -0.04297,-0.008 -0.02776,-0.008 -0.05628,-0.02 -0.08203,-0.0332 -0.01763,-0.0113 -0.03672,-0.0194 -0.05273,-0.0332 -0.0032,-0.003 -0.0048,-0.007 -0.0078,-0.01 -0.0027,-0.005 -0.0083,-0.009 -0.0098,-0.0137 -0.0018,-0.006 0.0018,-0.0105 0.002,-0.0156 -0.02268,-0.006 -0.04536,-0.0122 -0.06836,-0.0176 -0.002,-4.6e-4 -0.0039,-0.001 -0.0059,-0.002 -0.0026,-5.9e-4 -0.0052,-10e-4 -0.0078,-0.002 -0.0208,-0.005 -0.03456,-0.0144 -0.04102,-0.0254 -1.5e-5,-7.9e-4 -0.002,-10e-4 -0.002,-0.002 -0.0021,-1.4e-4 -0.0037,3e-4 -0.0059,0 -0.0042,0 -0.0076,-0.003 -0.01172,-0.004 -0.02105,-0.008 -0.042,-0.0204 -0.06055,-0.0332 -0.01642,-0.0143 -0.02112,-0.0245 -0.01563,-0.0391 -0.02463,-0.001 -0.04926,-0.006 -0.07227,-0.0137 -0.02628,-0.0109 -0.05334,-0.0231 -0.07813,-0.0371 -0.02319,-0.0131 -0.04546,-0.0274 -0.06836,-0.041 -0.01359,-0.008 -0.02895,-0.0135 -0.04297,-0.0215 v -0.004 c -0.01884,-0.0104 -0.02725,-0.0232 -0.0293,-0.0352 -0.01172,-0.003 -0.02381,-0.003 -0.03516,-0.008 -0.0165,-0.008 -0.03366,-0.017 -0.04883,-0.0273 -0.01116,-0.009 -0.02179,-0.0174 -0.0332,-0.0254 -0.01052,-0.007 -0.02204,-0.0135 -0.0332,-0.0195 -0.01373,-0.008 -0.02839,-0.0145 -0.04297,-0.0215 -0.01875,-0.007 -0.03792,-0.0135 -0.05664,-0.0215 -0.02002,-0.008 -0.03926,-0.0173 -0.05859,-0.0273 -0.01265,-0.006 -0.0072,-0.003 -0.01953,-0.01 -0.03228,-0.018 -0.03668,-0.0446 -0.02344,-0.0586 -0.02653,-0.0131 -0.05301,-0.026 -0.08008,-0.0391 -0.02984,-0.0131 -0.05934,-0.0292 -0.08789,-0.0449 -0.03045,-0.0179 -0.06123,-0.0351 -0.0918,-0.0527 -0.0514,-0.029 -0.101804,-0.0593 -0.152344,-0.0898 -0.05449,-0.0333 -0.108569,-0.0668 -0.162109,-0.10156 -0.06561,-0.0426 -0.1297,-0.0894 -0.19336,-0.13476 -0.05405,-0.0385 -0.107523,-0.0763 -0.158203,-0.11914 -0.0025,-0.002 -0.0035,-0.004 -0.0059,-0.006 -0.01339,-0.009 -0.02779,-0.0164 -0.04102,-0.0254 -0.03456,-0.0238 -0.06952,-0.0477 -0.103515,-0.0723 -0.03034,-0.0214 -0.05985,-0.0425 -0.08984,-0.0645 -0.01613,-0.0119 -0.03122,-0.0249 -0.04687,-0.0371 h -0.002 l -0.002,-0.002 -0.002,-0.002 c -0.0029,-0.002 -0.0068,-0.005 -0.0098,-0.008 -0.0015,-0.001 -0.0024,-0.002 -0.0039,-0.004 l -0.002,-0.002 c -0.0058,-0.005 -0.01169,-0.009 -0.01758,-0.0137 -0.02376,-0.0185 -0.04707,-0.0395 -0.07031,-0.0586 -0.02431,-0.019 -0.0492,-0.0361 -0.07227,-0.0566 -0.03484,-0.0291 -0.07006,-0.0591 -0.103515,-0.0898 -0.05056,-0.0466 -0.100448,-0.0933 -0.148438,-0.14258 -0.04642,-0.0474 -0.09305,-0.0964 -0.140625,-0.14258 -0.02811,-0.0257 -0.056,-0.0505 -0.08594,-0.0742 v -0.004 c -0.01561,-0.0123 -0.02081,-0.0257 -0.02148,-0.0371 -0.08505,-0.0312 -0.173568,-0.0815 -0.267578,-0.17969 -0.165685,-0.17246 -0.323609,-0.35209 -0.486328,-0.52734 -0.128384,0.008 -0.286894,-0.0481 -0.449219,-0.19532 -0.04623,-0.042 -0.09439,-0.0831 -0.140625,-0.125 -0.230264,-0.21077 -0.461656,-0.42106 -0.677734,-0.64648 -0.140846,0.0728 -0.348025,0.0392 -0.556641,-0.20313 -0.09678,-0.11239 -0.190603,-0.22727 -0.277343,-0.34765 -0.235064,-0.30966 -0.456276,-0.63056 -0.681641,-0.94727 -0.277202,-0.39631 -0.561346,-0.7881 -0.863281,-1.16601 -0.358816,-0.45376 -0.71931,-0.9061 -1.076172,-1.36133 -0.263409,-0.34859 -0.528113,-0.69993 -0.738282,-1.08398 -0.1408,-0.25744 -0.122036,-0.45884 -0.02539,-0.57032 -0.358716,-0.3912 -0.724574,-0.77579 -1.0625,-1.18554 -0.269147,-0.33735 -0.54191,-0.68051 -0.742188,-1.06446 -0.111459,-0.21368 -0.117747,-0.38279 -0.0625,-0.49218 -1.304022,-1.23054 -2.577413,-2.49432 -3.753906,-3.84766 -1.844721,-2.17353 -3.651356,-4.38779 -5.144531,-6.82422 -1.557653,-2.53397 -2.983345,-5.14689 -4.451172,-7.73438 -1.361228,-2.42322 -2.651595,-4.88443 -3.949219,-7.34179 -0.293542,-0.50528 -0.496406,-0.86379 -0.804687,-1.35547 -0.386891,-0.61689 -0.824327,-1.20557 -1.138672,-1.86524 -0.405857,-0.85163 -0.156059,-1.42703 0.294922,-1.54296 -6.152706,-5.43082 -12.4095,-11.26245 -18.744141,-17.63282 z m 41.802734,36.41211 c 0.03298,0.0737 0.06652,0.14706 0.09961,0.22071 0.01555,-0.036 0.02155,-0.0816 0.04102,-0.11328 -0.04672,-0.0356 -0.09389,-0.0717 -0.140626,-0.10743 z m 6.580079,4.83594 c 0.0047,0.008 0.009,0.0157 0.01367,0.0234 7.41e-4,-0.004 0.0012,-0.008 0.002,-0.0117 -0.0054,-0.004 -0.01018,-0.008 -0.01563,-0.0117 z m -1.060547,1.64649 c 0.01092,0.0229 0.02229,0.0455 0.0332,0.0684 0.04206,0.0884 0.08585,0.1758 0.128906,0.26368 8.68e-4,-0.0196 0.003,-0.0379 0.0039,-0.0566 -0.05579,-0.0915 -0.110311,-0.18483 -0.166015,-0.27539 z m 11.28125,8.5625 c -0.0014,0.011 -0.0024,0.0222 -0.0039,0.0332 0.0103,-9e-5 0.02084,-0.001 0.03125,0.002 0.01235,-0.009 0.0251,-0.0207 0.03711,-0.0293 -0.02122,-0.002 -0.04314,-0.005 -0.06445,-0.006 z m 5.175781,0.3164 c -0.03583,0.002 -0.07162,-0.001 -0.107422,0.002 0.152354,0.0775 0.315854,0.16037 0.46875,0.23829 -0.117688,-0.0756 -0.243361,-0.1642 -0.361328,-0.24024 z m -3.796875,5.78516 c -0.0024,9.2e-4 -0.0054,-0.001 -0.0078,0.002 -1.1e-4,0.002 9e-6,0.002 0,0.004 0.07397,0.0528 0.1479,0.10568 0.220703,0.16015 0.01601,0.007 0.03087,0.0165 0.04687,0.0234 -0.08662,-0.0631 -0.173861,-0.12533 -0.259766,-0.18945 z m -8.644531,0.82617 c -0.0095,6.3e-4 -0.01575,0.005 -0.02539,0.006 0.259213,0.16906 0.529489,0.32153 0.792969,0.48437 -0.256277,-0.16284 -0.512941,-0.32502 -0.767578,-0.49023 z m 21.982422,0.69141 c 0.156513,0.1538 0.31569,0.30527 0.476562,0.45507 0.339474,0.30604 0.6833,0.60712 1.025391,0.91016 0.04639,-0.007 0.09451,-0.0115 0.144531,-0.0117 0.303741,-0.002 0.669976,0.12833 1.044922,0.44336 0.530341,0.44567 0.953544,0.98024 1.298828,1.57617 0.268545,-0.23688 0.536616,-0.47437 0.808594,-0.70703 -0.717534,-0.38324 -1.441894,-0.75355 -2.154297,-1.14648 -0.883974,-0.50162 -1.763811,-1.01166 -2.644531,-1.51953 z m -24.486329,0.82812 c -0.0013,5.9e-4 -0.0025,0.002 -0.0039,0.002 0.0016,4.1e-4 0.0043,9.6e-4 0.0059,0.002 -7.82e-4,-0.001 -0.0012,-0.003 -0.002,-0.004 z m 15.791016,0.22461 c 0.03104,0.0342 0.0624,0.0676 0.09375,0.10156 0.07867,0.0626 0.161859,0.12068 0.242188,0.18164 -0.0209,-0.049 -0.04343,-0.0974 -0.06445,-0.14648 -0.09045,-0.0457 -0.180933,-0.0913 -0.271484,-0.13672 z m 1.058594,0.9707 c 0.0077,0.009 0.01373,0.0201 0.02148,0.0293 -5.6e-5,-0.009 -2.4e-4,-0.0184 0,-0.0273 -0.0072,-0.001 -0.01431,0.001 -0.02148,-0.002 z m 14.109375,1.53125 c -0.518495,0.43525 -1.031881,0.87724 -1.537109,1.32813 0.10464,0.20796 0.203925,0.41884 0.304687,0.6289 0.113086,-0.089 0.247387,-0.13792 0.390625,-0.14257 0.391184,-0.0127 0.844797,0.30411 1.078125,1.02929 0.08176,0.25411 0.09924,0.50726 0.0957,0.75977 0.01969,-0.002 0.03918,-0.005 0.05859,-0.006 0.228906,-0.008 0.437348,0.0979 0.576172,0.29102 0.115158,-0.17242 0.243706,-0.3358 0.353515,-0.51172 0.316934,-0.50776 0.697288,-0.72515 1.023438,-0.73243 0.622562,-0.0139 1.04527,0.74011 0.439453,1.70899 -0.496825,0.79457 -1.05111,1.54976 -1.605469,2.30469 -0.04228,0.0541 -0.08475,0.108 -0.126953,0.16211 1.080075,0.35544 2.157749,0.71955 3.259759,1.00195 0.95748,0.20915 1.93806,0.28776 2.91407,0.35156 0.51127,0.0333 1.00442,-0.0525 1.41211,-0.37109 0.42815,-0.31644 0.74204,-0.75411 0.98828,-1.22071 0.29249,-0.54227 0.458,-1.13179 0.58593,-1.73046 -0.002,-0.0518 0.0104,-0.19891 -0.043,-0.25391 -0.0209,-0.0215 -0.0583,0.0265 -0.0879,0.0215 -0.10739,-0.0172 -0.36294,-0.13059 -0.41211,-0.15039 -0.14771,-0.0599 -0.29443,-0.12288 -0.44336,-0.17968 -0.52611,-0.20076 -1.06482,-0.36465 -1.58789,-0.57422 -0.77528,-0.31064 -0.96084,-0.4141 -1.76368,-0.78907 -1.97914,-0.93006 -3.933035,-1.91638 -5.87304,-2.92578 z" /><path
         style="fill:#000000;fill-rule:evenodd"
         d="m 98.628785,267.90215 c 90.793205,-0.12438 87.808225,6.84058 87.808225,6.84058 l -90.544459,-0.99499 z"
         id="path53"
         inkscape:original-d="m 98.628785,267.90215 c 90.793205,-0.12438 87.808225,6.84058 87.808225,6.84058 l -90.544459,-0.99499 z" /><path
         style="fill:#000000;fill-rule:evenodd"
         d="m 188.92449,270.38963 -3.23373,4.3531 z"
         id="path54"
         inkscape:original-d="m 188.92449,270.38963 -3.23373,4.3531 z" /><path
         style="fill:#000000;fill-rule:evenodd"
         d="m 187.30763,273.00149 c 5.09934,-0.87062 7.46245,1.24374 7.46245,1.24374 l -8.70619,0.37313 z"
         id="path55"
         inkscape:original-d="m 187.30763,273.00149 c 5.09934,-0.87062 7.46245,1.24374 7.46245,1.24374 l -8.70619,0.37313 z" /><path
         style="fill:#000000;fill-rule:evenodd"
         d="m 200.86442,268.77277 -4.85059,5.22372 -9.7012,0.74624 14.80054,-5.09934 z"
         id="path56"
         inkscape:original-d="m 200.86442,268.77277 -4.85059,5.22372 -9.7012,0.74624 14.80054,-5.09934 z" /><path
         style="fill:#ffffff;fill-rule:evenodd"
         id="path82"
         d="m 209.95916,181.80757 c 0.12317,0.66696 0.13696,1.3462 0.21935,2.01812 0.0211,0.17245 0.0513,0.34368 0.0782,0.51532 0.0139,0.089 0.0213,0.17944 0.0444,0.26647 0.0142,0.0536 0.0446,0.10159 0.0668,0.15239 0.0706,0.0377 0.14627,0.0672 0.21175,0.11326 0.0372,0.0261 0.0518,0.0796 0.0922,0.10042 0.53228,0.27389 0.97397,0.21559 1.53812,0.24101 0.19983,0.005 0.40632,0.0387 0.60617,0.018 0.0848,-0.009 0.18967,0.009 0.25053,-0.0509 0.38528,-0.37757 0.43105,-0.80613 0.57619,-1.30175 0.10415,-0.99106 0.13638,-0.94577 0.0955,-1.93341 -0.002,-0.039 -0.0664,-0.81364 -0.111,-0.96546 -0.0942,-0.32082 -0.27538,-0.5865 -0.44146,-0.87239 -0.2879,-0.33061 -0.34893,-0.50401 -0.80764,-0.61258 -0.17623,-0.0417 -0.36201,-0.0124 -0.54309,-0.0145 -0.48035,-0.006 -0.8419,-0.0571 -1.25581,0.32982 -0.26406,0.24682 -0.39591,0.60486 -0.59387,0.90728 -0.0717,0.32032 -0.1881,0.63382 -0.21506,0.96095 -0.0244,0.29609 0.0183,0.5953 0.0626,0.88908 0.0686,0.45522 0.22437,0.96427 0.68576,1.17004 0.0774,0.0345 0.16716,0.0281 0.25074,0.0422 0.15394,-0.0244 0.10533,-0.0526 0.1686,-0.003 0,0 0.0716,-0.3711 0.0716,-0.3711 v 0 c -0.18842,-0.0202 -0.11993,-0.0401 -0.21394,-0.003 -0.0227,0.007 -0.0457,0.0279 -0.068,0.0199 -0.12146,-0.0432 -0.31362,-0.20303 -0.36221,-0.31463 -0.0787,-0.1807 -0.12339,-0.37595 -0.15582,-0.57035 -0.14002,-0.83916 -0.0713,-0.7723 0.0976,-1.6221 0.14501,-0.25481 0.23327,-0.55171 0.43505,-0.76442 0.35929,-0.37877 0.65516,-0.28359 1.09385,-0.29284 0.13019,-0.003 0.26156,-0.037 0.39027,-0.0173 0.36296,0.0558 0.39531,0.19226 0.633,0.45706 0.0907,0.15434 0.33267,0.53328 0.39413,0.73833 0.0419,0.13991 0.10547,0.88278 0.10676,0.91224 0.0406,0.9321 0.0108,0.89779 -0.0808,1.82542 -0.0654,0.23114 -0.13049,0.46237 -0.19616,0.69344 -0.0326,0.11473 -0.031,0.24578 -0.0987,0.34396 -0.0327,0.0474 -0.11029,0.0359 -0.16754,0.0419 -0.19469,0.0205 -0.39608,-0.0129 -0.59073,-0.0177 -0.34094,-0.0146 -0.67451,0.0148 -1.01211,-0.0589 -0.6028,-0.13151 -0.037,-0.0497 -0.57726,-0.27851 -0.0351,-0.0149 0.0459,0.0608 0.0688,0.0913 -0.0107,-0.0152 -0.0276,-0.0275 -0.0321,-0.0455 -0.0211,-0.0857 -0.0298,-0.17401 -0.0435,-0.2612 -0.026,-0.16524 -0.0554,-0.33004 -0.0757,-0.49607 -0.0828,-0.67498 -0.097,-1.35735 -0.22038,-2.02739 z"
         inkscape:original-d="m 209.95916,181.80757 c 0.12317,0.66696 0.13696,1.3462 0.21935,2.01812 0.0211,0.17245 0.0513,0.34368 0.0782,0.51532 0.0139,0.089 0.0213,0.17944 0.0444,0.26647 0.0142,0.0536 0.0446,0.10159 0.0668,0.15239 0.0706,0.0377 0.14627,0.0672 0.21175,0.11326 0.0372,0.0261 0.0518,0.0796 0.0922,0.10042 0.53228,0.27389 0.97397,0.21559 1.53812,0.24101 0.19983,0.005 0.40632,0.0387 0.60617,0.018 0.0848,-0.009 0.18967,0.009 0.25053,-0.0509 0.38528,-0.37757 0.43105,-0.80613 0.57619,-1.30175 0.10415,-0.99106 0.13638,-0.94577 0.0955,-1.93341 -0.002,-0.039 -0.0664,-0.81364 -0.111,-0.96546 -0.0942,-0.32082 -0.27538,-0.5865 -0.44146,-0.87239 -0.2879,-0.33061 -0.34893,-0.50401 -0.80764,-0.61258 -0.17623,-0.0417 -0.36201,-0.0124 -0.54309,-0.0145 -0.48035,-0.006 -0.8419,-0.0571 -1.25581,0.32982 -0.26406,0.24682 -0.39591,0.60486 -0.59387,0.90728 -0.0717,0.32032 -0.1881,0.63382 -0.21506,0.96095 -0.0244,0.29609 0.0183,0.5953 0.0626,0.88908 0.0686,0.45522 0.22437,0.96427 0.68576,1.17004 0.0774,0.0345 0.16716,0.0281 0.25074,0.0422 0.15394,-0.0244 0.10533,-0.0526 0.1686,-0.003 0,0 0.0716,-0.3711 0.0716,-0.3711 v 0 c -0.18842,-0.0202 -0.11993,-0.0401 -0.21394,-0.003 -0.0227,0.007 -0.0457,0.0279 -0.068,0.0199 -0.12146,-0.0432 -0.31362,-0.20303 -0.36221,-0.31463 -0.0787,-0.1807 -0.12339,-0.37595 -0.15582,-0.57035 -0.14002,-0.83916 -0.0713,-0.7723 0.0976,-1.6221 0.14501,-0.25481 0.23327,-0.55171 0.43505,-0.76442 0.35929,-0.37877 0.65516,-0.28359 1.09385,-0.29284 0.13019,-0.003 0.26156,-0.037 0.39027,-0.0173 0.36296,0.0558 0.39531,0.19226 0.633,0.45706 0.0907,0.15434 0.33267,0.53328 0.39413,0.73833 0.0419,0.13991 0.10547,0.88278 0.10676,0.91224 0.0406,0.9321 0.0108,0.89779 -0.0808,1.82542 -0.0654,0.23114 -0.13049,0.46237 -0.19616,0.69344 -0.0326,0.11473 -0.031,0.24578 -0.0987,0.34396 -0.0327,0.0474 -0.11029,0.0359 -0.16754,0.0419 -0.19469,0.0205 -0.39608,-0.0129 -0.59073,-0.0177 -0.34094,-0.0146 -0.67451,0.0148 -1.01211,-0.0589 -0.6028,-0.13151 -0.037,-0.0497 -0.57726,-0.27851 -0.0351,-0.0149 0.0459,0.0608 0.0688,0.0913 -0.0107,-0.0152 -0.0276,-0.0275 -0.0321,-0.0455 -0.0211,-0.0857 -0.0298,-0.17401 -0.0435,-0.2612 -0.026,-0.16524 -0.0554,-0.33004 -0.0757,-0.49607 -0.0828,-0.67498 -0.097,-1.35735 -0.22038,-2.02739 z" /><path
         style="fill:#1a1a1a;fill-rule:evenodd"
         id="path84"
         d="m 214.77428,180.46445 a 5.9077773,7.5868297 0 0 1 -5.90778,7.58683 5.9077773,7.5868297 0 0 1 -5.90778,-7.58683 5.9077773,7.5868297 0 0 1 5.90778,-7.58683 5.9077773,7.5868297 0 0 1 5.90778,7.58683 z"
         sodipodi:type="arc"
         sodipodi:cx="208.8665"
         sodipodi:cy="180.46445"
         sodipodi:rx="5.9077773"
         sodipodi:ry="7.5868297" /><path
         style="fill:#1a1a1a;fill-rule:evenodd;stroke-width:1.29935"
         id="path85"
         d="m 207.2559,182.26289 a 2.3745387,2.8582411 0 0 1 -2.37454,2.85824 2.3745387,2.8582411 0 0 1 -2.37454,-2.85824 2.3745387,2.8582411 0 0 1 2.37454,-2.85824 2.3745387,2.8582411 0 0 1 2.37454,2.85824 z"
         sodipodi:type="arc"
         sodipodi:cx="204.88136"
         sodipodi:cy="182.26289"
         sodipodi:rx="2.3745387"
         sodipodi:ry="2.8582411" /><path
         style="fill:#000000;fill-rule:evenodd"
         d="m 94.375,245 c 0,0 -9.875,-7.125 -10.625,-8.5 C 83,235.125 68.712999,223.38512 66.5,220.625 c -2.40533,-3 -10.667893,-12.61612 -11.625,-13.91789 -0.682658,-0.9285 -4.792893,-7.44194 -5.5,-8.95711 -0.528625,-1.13272 9.25,-1.875 9.25,-1.875 z"
         id="path10"
         sodipodi:nodetypes="csssscc"
         inkscape:original-d="m 94.375,245 c 0,0 -9.875,-7.125 -10.625,-8.5 C 83,235.125 68.712999,223.38512 66.5,220.625 c -2.40533,-3 -10.667893,-12.61612 -11.625,-13.91789 -0.682658,-0.9285 -4.792893,-7.44194 -5.5,-8.95711 -0.528625,-1.13272 9.25,-1.875 9.25,-1.875 z" /></g></g></svg>
